STARTFONT 2.1
FONT -FontForge-Henny Penny-Book-R-Normal--36-360-72-72-P-206-ISO10646-1
SIZE 36 72 72
FONTBOUNDINGBOX 50 64 -5 -23
COMMENT "Generated by fontforge, http://fontforge.sourceforge.net"
COMMENT "Copyright (c) 2012, Brownfox (gayaneh.b@gmail.com), with Reserved Font Name "Henny Penny""
STARTPROPERTIES 39
FOUNDRY "FontForge"
FAMILY_NAME "Henny Penny"
WEIGHT_NAME "Book"
SLANT "R"
SETWIDTH_NAME "Normal"
ADD_STYLE_NAME ""
PIXEL_SIZE 36
POINT_SIZE 360
RESOLUTION_X 72
RESOLUTION_Y 72
SPACING "P"
AVERAGE_WIDTH 206
CHARSET_REGISTRY "ISO10646"
CHARSET_ENCODING "1"
FONTNAME_REGISTRY ""
CHARSET_COLLECTIONS "ISO10646-1"
FONT_NAME "HennyPenny-Regular"
FACE_NAME "Henny Penny"
COPYRIGHT "Copyright (c) 2012, Brownfox (gayaneh.b@gmail.com), with Reserved Font Name "Henny Penny""
FONT_VERSION "1.001"
FONT_ASCENT 29
FONT_DESCENT 7
UNDERLINE_POSITION -4
UNDERLINE_THICKNESS 2
X_HEIGHT 21
CAP_HEIGHT 27
RAW_ASCENT 799
RAW_DESCENT 200
NORM_SPACE 10
RELATIVE_WEIGHT 40
RELATIVE_SETWIDTH 50
SUPERSCRIPT_X 0
SUPERSCRIPT_Y 12
SUPERSCRIPT_SIZE 21
SUBSCRIPT_X 0
SUBSCRIPT_Y 2
SUBSCRIPT_SIZE 21
AVG_LOWERCASE_WIDTH 184
AVG_UPPERCASE_WIDTH 258
ENDPROPERTIES
CHARS 233
STARTCHAR space
ENCODING 32
SWIDTH 270 0
DWIDTH 10 0
BBX 1 1 0 0
BITMAP
00
ENDCHAR
STARTCHAR exclam
ENCODING 33
SWIDTH 249 0
DWIDTH 9 0
BBX 5 35 2 -1
BITMAP
70
F8
F8
F8
F8
F8
F8
F8
78
78
78
78
78
78
70
30
30
30
30
30
30
30
30
20
20
20
20
00
00
00
70
F8
F8
F8
70
ENDCHAR
STARTCHAR quotedbl
ENCODING 34
SWIDTH 292 0
DWIDTH 11 0
BBX 7 14 2 17
BITMAP
0C
CC
CE
EE
CC
CC
CC
CC
4C
4C
4C
4C
44
48
ENDCHAR
STARTCHAR numbersign
ENCODING 35
SWIDTH 1030 0
DWIDTH 37 0
BBX 33 40 2 -11
BITMAP
0000200000
0000200000
0000600000
0000400000
0000410000
0000820000
0000820000
0001860000
0001040000
00030C0000
0002080000
FFFFB80000
000E7FFF80
000C300000
0008200000
0008600000
0018400000
0010C00000
0030800000
003181F000
0063FE0000
03FF800000
FFE3000000
00C2000000
01C6000000
0184000000
038C000000
030C000000
0718000000
0618000000
0630000000
0C30000000
0C20000000
0860000000
0060000000
00C0000000
00C0000000
0080000000
0180000000
0100000000
ENDCHAR
STARTCHAR dollar
ENCODING 36
SWIDTH 799 0
DWIDTH 29 0
BBX 22 40 3 -8
BITMAP
000100
000100
000304
000208
003FB8
00F3F8
01C270
03C230
03C630
03C430
03E430
03E420
03F420
03FC00
01F800
01FC00
00FE00
007F00
003F80
001FC0
001FC0
0017E0
1017E0
1023F0
1021F0
1021F0
1020F0
1820F0
3840F0
3840E0
3C40E0
7C41C0
4681C0
838700
00FC00
008000
010000
010000
010000
020000
ENDCHAR
STARTCHAR percent
ENCODING 37
SWIDTH 789 0
DWIDTH 28 0
BBX 26 33 1 0
BITMAP
0FC00100
18E00200
38700600
70700400
70380C00
70381800
70383000
78382000
78386000
3830C000
3C318000
1C618000
0F830000
00060000
000C0000
000C0000
00180000
00300000
00607E00
0060C700
00C18380
018381C0
010781C0
030701C0
060701C0
0C0701C0
080701C0
180701C0
300383C0
60038380
4001C700
C0007C00
80000000
ENDCHAR
STARTCHAR ampersand
ENCODING 38
SWIDTH 773 0
DWIDTH 28 0
BBX 26 35 1 -4
BITMAP
00F80000
030C0000
06060000
06060000
0C060000
0C0E0000
0C0E0000
0C1C0000
0C3C0000
0E780000
0EF00000
0FE00000
07C00200
07C00600
0F801E00
1F803E00
1F80FE00
3FC70E00
7DE00E00
79E00600
F8F00400
F8F80C00
F8780C00
F83C0800
F83E0800
F81F1000
F80FB000
780FE040
3C07E040
3E03F0C0
0F07FF80
03F8FF80
00007F00
00001E00
00000E00
ENDCHAR
STARTCHAR quotesingle
ENCODING 39
SWIDTH 174 0
DWIDTH 6 0
BBX 3 11 2 17
BITMAP
C0
E0
E0
E0
E0
E0
40
40
40
40
40
ENDCHAR
STARTCHAR parenleft
ENCODING 40
SWIDTH 431 0
DWIDTH 16 0
BBX 15 51 0 -15
BITMAP
0080
0100
0300
0200
0600
0C00
0C00
1C00
1800
1800
3800
3800
3800
7000
7000
7000
7000
F000
F000
F000
F000
F000
F000
F000
F000
F000
F000
F000
F000
7800
7800
7800
7800
3C00
3C00
3C00
1E00
1E00
0E00
0F00
0700
0780
0380
01C0
01E0
00E0
0070
0038
001C
000E
0002
ENDCHAR
STARTCHAR parenright
ENCODING 41
SWIDTH 443 0
DWIDTH 16 0
BBX 15 35 1 -8
BITMAP
3000
1C00
0F00
0780
03C0
01E0
00F0
00F0
0078
0078
003C
003C
003E
001E
001E
001E
001E
001E
001E
001E
001E
001C
003C
003C
0038
0078
0070
00F0
00E0
01C0
0380
0700
1E00
3800
E000
ENDCHAR
STARTCHAR asterisk
ENCODING 42
SWIDTH 490 0
DWIDTH 18 0
BBX 14 15 2 18
BITMAP
0700
0700
0700
030C
031C
0338
E170
F9E0
FF80
0180
06E0
0E70
1C78
1838
001C
ENDCHAR
STARTCHAR plus
ENCODING 43
SWIDTH 440 0
DWIDTH 16 0
BBX 12 18 1 3
BITMAP
0100
0100
0100
0100
0100
0100
0100
0100
0310
FFE0
0100
0100
0100
0100
0100
0100
0180
0080
ENDCHAR
STARTCHAR comma
ENCODING 44
SWIDTH 251 0
DWIDTH 9 0
BBX 5 12 2 -6
BITMAP
70
F8
F8
F8
78
78
30
30
30
20
40
40
ENDCHAR
STARTCHAR hyphen
ENCODING 45
SWIDTH 436 0
DWIDTH 16 0
BBX 12 1 2 7
BITMAP
FFF0
ENDCHAR
STARTCHAR period
ENCODING 46
SWIDTH 238 0
DWIDTH 9 0
BBX 5 6 2 -1
BITMAP
70
F8
F8
F8
F8
70
ENDCHAR
STARTCHAR slash
ENCODING 47
SWIDTH 690 0
DWIDTH 25 0
BBX 25 33 0 0
BITMAP
00000180
00000300
00000200
00000600
00000C00
00000800
00001800
00003000
00006000
00004000
0000C000
00018000
00030000
00030000
00060000
000C0000
00180000
00180000
00300000
00600000
00400000
00C00000
01800000
01000000
03000000
06000000
0C000000
08000000
18000000
30000000
20000000
60000000
C0000000
ENDCHAR
STARTCHAR zero
ENCODING 48
SWIDTH 723 0
DWIDTH 26 0
BBX 25 26 0 2
BITMAP
007F0000
0381E000
07007000
0E003800
1C001C00
38001E00
78000F00
78000F00
70000F00
F0000780
F0000780
F0000780
F0000780
F0000780
F0000780
F0000780
F8000780
78000780
78000700
3C000F00
3C000E00
1E001E00
0F001C00
07803800
01E0E000
007F8000
ENDCHAR
STARTCHAR one
ENCODING 49
SWIDTH 505 0
DWIDTH 18 0
BBX 18 33 0 -3
BITMAP
008000
008000
00C000
01C000
01C000
03C000
07C000
0FC000
1BE000
21E000
C1E000
00E000
00E000
00E000
00F000
00F000
00F000
00F000
007000
007800
007800
007800
007800
007800
007C00
007C00
007C00
007E00
00FFC0
01E000
070000
0C0000
300000
ENDCHAR
STARTCHAR two
ENCODING 50
SWIDTH 534 0
DWIDTH 19 0
BBX 19 32 0 -3
BITMAP
03F000
0FFC00
1FFE00
387F00
301F00
601F80
400F80
400F80
C00F80
800F00
800F00
800F00
001E00
001C00
003C00
003800
007000
006000
00C000
018000
030000
0C0000
180000
780020
3E0020
0FC020
03F040
01FF80
007F80
003F00
000F00
000600
ENDCHAR
STARTCHAR three
ENCODING 51
SWIDTH 511 0
DWIDTH 18 0
BBX 18 30 0 -2
BITMAP
380000
3FFC00
3FFE00
3FFC00
380C00
300800
201000
202000
402000
004000
008000
01C000
01F800
007C00
003E00
001F00
000F80
8007C0
8003C0
8003C0
8003C0
8003C0
C003C0
4003C0
6007C0
300F80
3C1F80
1FFF00
0FFE00
03F800
ENDCHAR
STARTCHAR four
ENCODING 52
SWIDTH 712 0
DWIDTH 26 0
BBX 25 35 0 -4
BITMAP
00010000
00030000
00020000
00060000
000E0000
001E0000
003E0000
003E0000
004E0000
008E0000
010F0000
020F0000
04070000
08070000
18070000
30078000
70078000
FC078000
3F078000
07C3C000
01FBC100
003FC100
000FFE00
0003FE00
0001FC00
0001EC00
0001E000
0001E000
0001E000
0001F000
0001F000
0001F800
000FF800
00000C00
00000380
ENDCHAR
STARTCHAR five
ENCODING 53
SWIDTH 757 0
DWIDTH 27 0
BBX 27 34 0 -4
BITMAP
00000020
00030020
0007C040
0007F0C0
000FFFC0
0008FF80
00107F80
00103F00
00200F00
00200600
00400000
00400000
00F80000
00FF8000
003FC000
0007E000
0003F000
6001F800
4000F800
C0007800
80007C00
80007C00
80007C00
80007800
80007800
80007800
8000F800
C000F000
4001F000
6001E000
3003C000
1C0F8000
0FFF0000
03F80000
ENDCHAR
STARTCHAR six
ENCODING 54
SWIDTH 598 0
DWIDTH 22 0
BBX 20 28 1 0
BITMAP
00FE00
03FF80
07C1C0
0F0060
1E0030
3C0010
3C0010
7C0000
787E00
798780
FE01C0
FC01E0
FC00E0
F800F0
F80070
F80070
F80070
F80070
F80070
780070
780070
780070
3C00E0
1C00E0
1E00C0
0F0180
038700
00FC00
ENDCHAR
STARTCHAR seven
ENCODING 55
SWIDTH 507 0
DWIDTH 18 0
BBX 18 30 0 -2
BITMAP
000040
C003C0
FFFF80
FFFF80
FFFF00
60FF00
600E00
400600
400400
400C00
400800
801800
001000
003000
002000
006000
006000
00E000
00C000
01C000
01C000
03C000
038000
038000
078000
078000
0F8000
0F8000
0F8000
080000
ENDCHAR
STARTCHAR eight
ENCODING 56
SWIDTH 476 0
DWIDTH 17 0
BBX 16 30 1 -1
BITMAP
07E0
1E10
3C08
3C08
7C04
7C04
7C0C
7C08
7E08
7F10
3FA0
3FC0
1FE0
0FF0
0FF8
1FFC
307E
603E
601F
C00F
C00F
C007
C007
C007
C006
C006
600C
700C
3838
0FE0
ENDCHAR
STARTCHAR nine
ENCODING 57
SWIDTH 601 0
DWIDTH 22 0
BBX 21 27 0 -1
BITMAP
03F800
0E0F00
1C0780
3803C0
7001E0
7001F0
F001F0
F000F8
F000F8
F000F8
F000F8
F000F8
7000F8
7800F8
3C01F8
1E01F8
0F07F8
03F8F8
0001F0
0001F0
0001E0
0003E0
0003C0
600780
381F00
1FFE00
07F000
ENDCHAR
STARTCHAR colon
ENCODING 58
SWIDTH 246 0
DWIDTH 9 0
BBX 5 18 2 -1
BITMAP
70
F8
F8
F8
70
00
00
00
00
00
00
00
00
70
F8
F8
F8
70
ENDCHAR
STARTCHAR semicolon
ENCODING 59
SWIDTH 266 0
DWIDTH 10 0
BBX 5 23 2 -7
BITMAP
70
F8
F8
F8
F8
70
00
00
00
00
00
00
00
70
F8
F8
F8
78
30
30
60
40
80
ENDCHAR
STARTCHAR less
ENCODING 60
SWIDTH 522 0
DWIDTH 19 0
BBX 15 16 2 3
BITMAP
000C
0018
0070
00C0
0380
0600
1C00
7000
E000
7000
1C00
0700
01C0
00F0
003C
000E
ENDCHAR
STARTCHAR equal
ENCODING 61
SWIDTH 655 0
DWIDTH 24 0
BBX 20 7 2 7
BITMAP
007FF0
FFE000
800000
000000
000000
FFFE00
FFFF80
ENDCHAR
STARTCHAR greater
ENCODING 62
SWIDTH 533 0
DWIDTH 19 0
BBX 15 18 2 2
BITMAP
8000
6000
3800
0C00
0700
01C0
0060
0038
000E
000E
001C
0038
0060
01C0
0300
0600
1800
3000
ENDCHAR
STARTCHAR question
ENCODING 63
SWIDTH 564 0
DWIDTH 20 0
BBX 19 33 1 -4
BITMAP
03F800
0C1E00
180F80
300780
7003C0
7003C0
F003E0
F803E0
F803E0
FC03E0
FE07C0
FE07C0
FE0F80
7E1F80
3C1F00
003C00
00F800
01E000
038000
070000
060000
0C0000
080000
180000
190000
090000
0F0000
000000
000000
0E0000
0F0000
0F0000
060000
ENDCHAR
STARTCHAR at
ENCODING 64
SWIDTH 898 0
DWIDTH 32 0
BBX 29 36 2 -11
BITMAP
000FF000
00700E00
00C00300
030000C0
06000040
0C000020
08000030
10000010
20003C10
203F3C18
6071BC08
40C0FC08
41C07808
43807808
83803808
87803808
87803808
87803808
87803808
87803810
87807810
87C07810
83E0DC20
83F19C60
C1FF8FC0
40FF0780
407E0000
4001C000
2003E000
3003E000
1003E000
1801E000
0C00E000
0600C000
01818000
007E0000
ENDCHAR
STARTCHAR A
ENCODING 65
SWIDTH 784 0
DWIDTH 28 0
BBX 29 32 0 -3
BITMAP
00020000
000F0000
003F0000
03FF0000
001F8000
001F8000
00178000
0013C000
0033C000
0023C000
0021E000
0061E000
0041E000
0041F000
00C0F000
00F0F800
008FF800
0181F800
01007C00
03007C00
03003C00
02003E00
06003E00
06001E00
0E001F00
FE001F00
0F001F00
01800F80
00000F80
00000FE0
00001FF8
0000F000
ENDCHAR
STARTCHAR B
ENCODING 66
SWIDTH 685 0
DWIDTH 25 0
BBX 24 36 0 -5
BITMAP
001FC0
E7FFE0
1F83F0
0F81F8
0780F8
0780F8
078078
038078
038078
0380F0
0380E0
0381C0
038380
038E00
03F7C0
0380F0
038078
03C03C
03C01E
03C01E
03C01F
03C00F
03C00F
03C00F
03C00F
03C00F
03C01F
03C01E
03C01E
03E03C
07E038
07F0F0
0FFF80
3C0000
600000
C00000
ENDCHAR
STARTCHAR C
ENCODING 67
SWIDTH 742 0
DWIDTH 27 0
BBX 26 34 0 -4
BITMAP
00000100
00000100
00000200
00000200
00000200
003FEF00
01E03F00
07800F00
0F000700
1E000300
3E000100
3C000180
7C000080
7C000000
7C000000
F8000000
F8000000
F8000000
F8000000
F8000000
F8000040
FC000040
FC000040
FC000040
7C000040
7E000040
7E000080
3F000080
1F800180
1FC00300
0FE00600
03F81C00
01FFF800
003FC000
ENDCHAR
STARTCHAR D
ENCODING 68
SWIDTH 726 0
DWIDTH 26 0
BBX 25 30 0 -6
BITMAP
003FE000
7FC1F800
1F007C00
0F003E00
0F001F00
0F001F00
07000F80
07000F80
07000F80
07000F80
07000F80
07000F80
07000F80
07000F80
07000F80
07800F00
07801F00
07801E00
07801E00
07803C00
07C07000
07E0C000
0FFF0000
0FE00000
0F000000
1C000000
18000000
20000000
C0000000
80000000
ENDCHAR
STARTCHAR E
ENCODING 69
SWIDTH 557 0
DWIDTH 20 0
BBX 19 33 1 -4
BITMAP
000380
FBFF80
7F0180
3E0080
3E0080
1E0080
1E0000
1E0000
1E0000
1F0000
1F0000
1F0800
0F0800
0F0800
0FF800
0FF800
0F1800
0F0800
0F0800
0F0800
0F1000
070000
070000
070000
070000
070000
078020
078020
078020
078060
0780E0
FFFFE0
001FC0
ENDCHAR
STARTCHAR F
ENCODING 70
SWIDTH 533 0
DWIDTH 19 0
BBX 19 32 1 -1
BITMAP
0000E0
0007E0
0078E0
FF8060
3F8060
1F8040
0F8040
0F8040
0F8040
0F8080
0F8000
078400
078800
078800
079800
07F800
079800
078800
078800
038800
038800
038000
038000
038000
038000
038000
038000
038000
03C000
03C000
0FC000
FFF800
ENDCHAR
STARTCHAR G
ENCODING 71
SWIDTH 750 0
DWIDTH 27 0
BBX 27 27 0 -1
BITMAP
00000020
00000060
000000C0
003F8180
01E07F80
07801F00
0F000F00
1E000E00
3E000600
3C000400
7C000400
7C000C00
F8000000
F8000000
F80001C0
F8001F00
F807FE00
F8001E00
F8001E00
FC001E00
7C001E00
7C001F00
3E001F00
1E001F00
0F002100
07C0C000
01FF0000
ENDCHAR
STARTCHAR H
ENCODING 72
SWIDTH 743 0
DWIDTH 27 0
BBX 27 37 0 -5
BITMAP
40000000
38000000
0FFE0000
0FC00000
078000E0
07800F00
0783FF00
07801F00
07801F00
07801E00
07801E00
07800E00
07800E00
07800E00
07800E00
07800E00
07801E00
07803E00
07FFFE00
07C01E00
07801E00
07800E00
07800E00
07800E00
07800E00
07800E00
07800E00
07800E00
07800E00
07800E00
07800E00
07800E00
07801F00
0781FFC0
0F800020
7FC00000
C0200000
ENDCHAR
STARTCHAR I
ENCODING 73
SWIDTH 438 0
DWIDTH 16 0
BBX 20 37 -2 -6
BITMAP
300FF0
4FFE00
03F800
03F800
01F000
01F000
01F000
01F000
01E000
01E000
01E000
01E000
01E000
01E000
01E000
01E000
01E000
01C000
01C000
01C000
01C000
01C000
01C000
01C000
01C000
01C000
01C000
01C000
01C000
01C000
01C000
01C000
01C000
03E000
07FC00
1E0000
E00000
ENDCHAR
STARTCHAR J
ENCODING 74
SWIDTH 628 0
DWIDTH 23 0
BBX 24 42 0 -9
BITMAP
000003
00001C
0003F0
00FFE0
001FC0
000FC0
0007C0
0007C0
0007C0
0007C0
0003C0
0003C0
0003C0
0003C0
0003C0
0003C0
0003C0
0003C0
0003C0
0003C0
000380
000380
000380
000380
000380
000380
000380
000380
000700
000700
000700
000700
3C0600
7E0E00
FF0E00
FF0C00
FF1C00
FE1800
C03000
C06000
61C000
1F0000
ENDCHAR
STARTCHAR K
ENCODING 75
SWIDTH 866 0
DWIDTH 31 0
BBX 32 32 0 -2
BITMAP
00200000
01C10000
FF80E000
1F007FC0
1F007000
0F006000
0F00C000
0F018000
0F030000
0F020000
0F060000
0F0C0000
0F1C0000
0F3C0000
0F7E0000
0FFE0000
0F9F0000
071F0000
070F8008
070FC004
0707C006
0703E002
0703F002
0701F803
0700FC02
07807F06
07803FFE
07800FFC
078003F0
0F800000
1FC00000
00780000
ENDCHAR
STARTCHAR L
ENCODING 76
SWIDTH 660 0
DWIDTH 24 0
BBX 23 26 0 1
BITMAP
F80000
0FFF00
07F000
03F000
03E000
03E000
03E000
03E000
03E000
03E000
03E000
03E000
03C000
03C000
03C010
03C010
03C010
03C018
03C018
03C008
03C00C
03C01C
03C01C
07E03E
0FFFFE
7C0000
ENDCHAR
STARTCHAR M
ENCODING 77
SWIDTH 1089 0
DWIDTH 39 0
BBX 40 27 0 -1
BITMAP
00000003F8
00000007C0
0000000700
0000000E00
07F8000E00
00FC001E00
007E001E00
006F001F00
002F802F00
0027804F00
0027C04F00
0023E08F00
0023F08700
0021F10780
0020F90780
0020FE0780
00207E0380
00207E03C0
00203C03C0
00603C03C0
00601803E0
E0401001E0
F0C00001F0
F9C00001F8
FF800003FF
FF00001E00
7C00002000
ENDCHAR
STARTCHAR N
ENCODING 78
SWIDTH 799 0
DWIDTH 29 0
BBX 28 33 0 -8
BITMAP
FF800030
0FC07FC0
0FE00F00
07F00700
05F80300
04FC0200
047C0200
047E0200
043F0200
041F8200
040FC200
040FE200
0407F200
0403FE00
0403FE00
0401FE00
0400FE00
04007E00
04003E00
04003E00
04001E00
04000E00
04000600
04000200
04000000
04000000
04000000
04000000
0E000000
0E000000
1F000000
FF800000
01E00000
ENDCHAR
STARTCHAR O
ENCODING 79
SWIDTH 747 0
DWIDTH 27 0
BBX 27 27 0 1
BITMAP
007F8000
0381E000
07007800
0E003C00
1C001E00
3C001F00
38000F80
78000F80
78000FC0
F80007C0
F80007C0
F00007C0
F00007C0
F80007E0
F80007C0
F80007C0
F80007C0
F80007C0
780007C0
7C000780
3C000780
3E000F00
1E000F00
0F001E00
07803800
01E07000
007F8000
ENDCHAR
STARTCHAR P
ENCODING 80
SWIDTH 623 0
DWIDTH 22 0
BBX 23 31 0 -5
BITMAP
0007E0
0038F8
FFF07C
0FE03C
03E03C
03E03E
01E03E
01E03E
01E03C
01E03C
01E03C
01E078
01E070
01E0E0
01FF80
01E000
01E000
01E000
01E000
01E000
01E000
01E000
03E000
03E000
03E000
03E000
03E000
07F000
07F800
1FFC00
700780
ENDCHAR
STARTCHAR Q
ENCODING 81
SWIDTH 804 0
DWIDTH 29 0
BBX 41 44 0 -16
BITMAP
003FC0000000
00C0F8000000
03003E000000
06001F000000
0C000F800000
1C0007C00000
380003C00000
380003E00000
780001E00000
700001F00000
700001F00000
F00000F00000
F00000F00000
F00000F00000
F00000F00000
F00000F00000
F80000F00000
F80000F00000
F80000F00000
7800F8F00000
7C01FEE00000
7C030FE00000
3E0207E00000
3E0607C00000
1F0603800000
0F8407C00000
07C40FC00000
03FC1DE00000
01FFF9E00000
003FC1E00000
000001F00000
000001F00000
000001F00000
000000F80000
000000F80080
000000F80080
000000FC0080
0000007C0080
0000007E0180
0000003F0100
0000003F8700
0000001FFE00
0000000FFC00
00000003F000
ENDCHAR
STARTCHAR R
ENCODING 82
SWIDTH 869 0
DWIDTH 31 0
BBX 33 26 0 -1
BITMAP
000FC00000
00F0F00000
FFE0780000
0FE0780000
07C03C0000
07C03C0000
03C03C0000
03C03C0000
03C07C0000
03C07C0000
03C0780000
03C0F80000
03C1F00000
01C7C00000
01FFC00000
01C7C00000
01C3C00000
01C3E00100
01C1F00080
01C1F80080
01C0FC0080
01C07E0180
01E03F8300
03E01FFF00
3FF00FFE00
000C01F800
ENDCHAR
STARTCHAR S
ENCODING 83
SWIDTH 517 0
DWIDTH 19 0
BBX 19 34 -1 -4
BITMAP
000040
000060
007C40
01C3C0
0381C0
0380C0
0780C0
078040
078040
078000
07C000
03E000
03F000
03F000
01F800
00FC00
007E00
007F00
003F80
001F80
000FC0
0007C0
8007E0
C003E0
4003E0
4001E0
6001E0
6001E0
3001E0
3801E0
3801C0
3E0380
230700
40FC00
ENDCHAR
STARTCHAR T
ENCODING 84
SWIDTH 659 0
DWIDTH 24 0
BBX 24 37 1 -5
BITMAP
F8000F
FFFFFF
F00E0F
E00E07
E00E03
600E03
600E03
600E02
600E02
200E00
200E00
300E00
100E00
000E00
000E00
000E00
001E00
001E00
001E00
001E00
001E00
001E00
001E00
001E00
001E00
001E00
001E00
001E00
001E00
001F00
003F00
003F80
007FFC
00F000
018000
020000
0C0000
ENDCHAR
STARTCHAR U
ENCODING 85
SWIDTH 690 0
DWIDTH 25 0
BBX 28 28 0 2
BITMAP
00010000
000E0000
00780000
07F00000
FFE00000
1FE00000
0FE3FFF0
07C03E00
07C00E00
07C00E00
07C00600
07C00600
07C00400
07C00400
07C00400
07C00400
07C00400
07C00400
07C00400
03E00400
03E00400
03E00400
01E00800
01F00800
00F01000
007C3000
003FE000
000F8000
ENDCHAR
STARTCHAR V
ENCODING 86
SWIDTH 798 0
DWIDTH 29 0
BBX 32 28 0 1
BITMAP
00030000
003C0000
FFE00000
0FF00003
03F00006
01F0000C
00F80038
00F801F0
00781FE0
007C01C0
003C01C0
003E0180
001E0180
001F0100
000F0300
000F8200
000F8200
0007C400
0007E400
0003E800
0003F800
0001F800
0001F000
0001F000
0000E000
0000E000
00006000
00004000
ENDCHAR
STARTCHAR W
ENCODING 87
SWIDTH 1120 0
DWIDTH 40 0
BBX 46 31 -1 -3
BITMAP
000000004000
000000003C00
000000000FFC
000000000780
000000000700
001000000600
006000000600
00C000000400
03C000000C00
0FC000000800
FFC000001800
0FC008001000
03C01C001000
03E01E003000
01E03E002000
01E02F006000
01F04F804000
00F047804000
00F887C08000
00F983E08000
007D03E10000
007F03F10000
007E01FB0000
003E01FE0000
003C00FE0000
003C00FC0000
0018007C0000
001800780000
000000380000
000000300000
000000100000
ENDCHAR
STARTCHAR X
ENCODING 88
SWIDTH 868 0
DWIDTH 31 0
BBX 32 29 0 -1
BITMAP
00010000
003F0000
FFFE0000
07FC0400
01FE0300
007E00E0
003E00DC
003F0080
001F0100
000F8200
0007C200
0007C400
0003EC00
0003F800
0001F800
0001F800
0003F800
00027C00
00063C00
000C1E00
00181F00
00100F00
00300F80
00600780
03E003C0
7FE003E0
01F003F0
00387FFC
00000007
ENDCHAR
STARTCHAR Y
ENCODING 89
SWIDTH 796 0
DWIDTH 29 0
BBX 32 36 0 -5
BITMAP
00180000
01E00000
FF800380
1F8000FF
0FC000C0
07C00080
03E00100
01F00200
00F80200
007C0400
003E0800
003F1800
001FB000
000FE000
000FE000
0007C000
0007C000
0003C000
0003C000
0003C000
0003C000
0003C000
0003C000
0003C000
0003C000
0003C000
0003C000
0003C000
0003C000
0003C000
0007C000
0007E000
000FE000
00FFE000
00007800
00000C00
ENDCHAR
STARTCHAR Z
ENCODING 90
SWIDTH 627 0
DWIDTH 23 0
BBX 22 31 2 -5
BITMAP
800000
F00600
FFFE00
E07E00
C0FC00
80FC00
80FC00
80F800
81F800
81F000
81F000
01F000
03E000
03E000
03C000
03C000
07C020
078020
078020
0F8020
0F0030
0F0030
0F0030
1E0030
1E0078
1E0078
3C01F8
3C07F8
3DF804
3E0000
400000
ENDCHAR
STARTCHAR bracketleft
ENCODING 91
SWIDTH 344 0
DWIDTH 12 0
BBX 12 36 0 -7
BITMAP
1E00
1FE0
1C10
3C00
3C00
3C00
3800
3800
3800
3800
7800
7800
7800
7800
7800
7800
7800
7800
7800
7000
F000
F000
F000
F000
F000
F000
F000
F000
F000
F000
F000
F000
F800
F800
FC00
3FE0
ENDCHAR
STARTCHAR backslash
ENCODING 92
SWIDTH 347 0
DWIDTH 13 0
BBX 12 39 0 -5
BITMAP
8000
4000
4000
4000
6000
2000
2000
3000
3000
1000
1000
1800
0800
0800
0C00
0C00
0400
0400
0600
0600
0200
0300
0300
0100
0100
0180
0180
0080
00C0
00C0
0040
0040
0060
0060
0020
0030
0030
0010
0010
ENDCHAR
STARTCHAR bracketright
ENCODING 93
SWIDTH 334 0
DWIDTH 12 0
BBX 11 33 1 -8
BITMAP
0180
3F80
4780
0780
0780
0780
0380
0380
03C0
03C0
03C0
03C0
03C0
03C0
03C0
03C0
03C0
03C0
03C0
03C0
03E0
03E0
03E0
03E0
03E0
03E0
03E0
03E0
03E0
0780
0E00
3800
E000
ENDCHAR
STARTCHAR asciicircum
ENCODING 94
SWIDTH 658 0
DWIDTH 24 0
BBX 20 9 2 19
BITMAP
00C000
00C000
01E000
03F000
07F800
1E3C00
781F00
C007C0
0000F0
ENDCHAR
STARTCHAR underscore
ENCODING 95
SWIDTH 678 0
DWIDTH 24 0
BBX 21 3 2 -11
BITMAP
001FF0
3FFFF8
FE0000
ENDCHAR
STARTCHAR grave
ENCODING 96
SWIDTH 278 0
DWIDTH 10 0
BBX 6 7 2 27
BITMAP
C0
E0
70
38
38
1C
04
ENDCHAR
STARTCHAR a
ENCODING 97
SWIDTH 527 0
DWIDTH 19 0
BBX 20 26 1 -4
BITMAP
07C000
18E000
107000
307800
303800
383800
3C3C00
3E3C00
3E3C00
1C3C00
003C00
001E00
0FFE00
381E00
701E00
701E00
E01E00
E01F00
F01F00
F86F00
FFEF10
7F8F10
1F0F90
0007E0
0007E0
0003C0
ENDCHAR
STARTCHAR b
ENCODING 98
SWIDTH 582 0
DWIDTH 21 0
BBX 23 41 -2 0
BITMAP
010000
010000
030000
030000
070000
1F0000
FF0000
0F0000
070000
070000
070000
070000
070000
070000
070000
070000
070000
078000
078000
078000
078000
038000
038000
0387E0
039FF0
03B0F8
03C07C
03803C
03803E
03803E
03C01E
03C01E
03C01E
03C03C
03C03C
03C03C
03E078
03F0F0
07FFC0
0F8000
380000
ENDCHAR
STARTCHAR c
ENCODING 99
SWIDTH 437 0
DWIDTH 16 0
BBX 15 20 1 2
BITMAP
03E0
0CF8
107C
307C
207C
607C
6038
E000
E000
E008
E004
E004
F006
F006
7806
780C
7E1C
3FF8
1FF0
07E0
ENDCHAR
STARTCHAR d
ENCODING 100
SWIDTH 523 0
DWIDTH 19 0
BBX 19 34 1 2
BITMAP
000100
000700
000F00
003F00
00DF00
001F00
001F00
000E00
000E00
000E00
000E00
000E00
000E00
000E00
000E00
000E00
000E00
000E00
000E00
000E00
0FEE00
3E1E00
780E00
780E00
F00E00
F00E00
F00E00
F00E00
F00E00
F00E00
F80E00
780E00
3E1F00
0FFFE0
ENDCHAR
STARTCHAR e
ENCODING 101
SWIDTH 434 0
DWIDTH 16 0
BBX 15 20 1 1
BITMAP
03E0
0E38
1C1C
381C
381C
781E
701C
F01C
F01C
F038
F070
FFC4
F004
F004
7804
7804
3C04
3E0C
1FF8
07E0
ENDCHAR
STARTCHAR f
ENCODING 102
SWIDTH 299 0
DWIDTH 11 0
BBX 18 46 -1 -6
BITMAP
001F00
002180
0040C0
0080C0
0081C0
0183C0
018FC0
011FC0
031FC0
031F80
030F00
030000
030000
070000
070000
078400
0FF800
FF8000
070000
070000
070000
070000
070000
070000
070000
070000
078000
078000
078000
078000
078000
078000
078000
078000
078000
078000
078000
078000
078000
078000
078000
078000
07C000
0FFC00
1C0000
600000
ENDCHAR
STARTCHAR g
ENCODING 103
SWIDTH 567 0
DWIDTH 20 0
BBX 22 35 -1 -14
BITMAP
0000F0
00033C
00043C
03FC7C
0F8E7C
1F0738
1E0780
3E0780
3E0780
3E0780
3E0780
3E0780
1E0780
1E0F00
0F1E00
03F800
060000
0C0000
0C0000
0F0000
01F800
070F80
0E03C0
1C01E0
3C00F0
7800F0
7800F0
F80070
F80070
F800E0
7800E0
7C00C0
3E0180
1F0600
07F000
ENDCHAR
STARTCHAR h
ENCODING 104
SWIDTH 566 0
DWIDTH 20 0
BBX 22 39 -1 0
BITMAP
004000
008000
018000
078000
1F8000
7F8000
078000
038000
038000
038000
038000
030000
030000
030000
030000
030000
070000
070000
070000
070000
070000
070000
071F00
073F80
0747C0
07C3C0
0783C0
0783C0
0701C0
0F01E0
0F01E0
0F01E0
0F01E0
0E01C0
0E01C0
0E03E0
1E03E0
FF03FC
01CC00
ENDCHAR
STARTCHAR i
ENCODING 105
SWIDTH 301 0
DWIDTH 11 0
BBX 10 25 0 3
BITMAP
0C00
1E00
1E00
0C00
0000
0100
0300
1F00
FE00
1E00
1E00
1E00
1E00
1E00
1E00
1E00
1E00
1E00
1E00
1C00
1C00
1C00
1E00
3E00
FFC0
ENDCHAR
STARTCHAR j
ENCODING 106
SWIDTH 367 0
DWIDTH 13 0
BBX 16 41 -4 -18
BITMAP
0030
0078
0078
0030
0000
0000
000C
0FFE
00FE
007E
003E
001E
001E
001F
000F
000F
000F
000F
000F
0007
0007
0007
0007
0007
0007
0007
0007
0007
3C07
7E07
FE06
FE06
FE06
F80E
C00C
C00C
C018
C018
4030
30E0
1F80
ENDCHAR
STARTCHAR k
ENCODING 107
SWIDTH 567 0
DWIDTH 20 0
BBX 23 40 -3 -4
BITMAP
008000
018000
038000
1F8000
FF8000
038000
038000
038000
038000
018000
01C000
01C000
01C000
01C000
01C000
01C000
01C800
01C700
01C1F8
01C180
01C300
01C600
01CC00
01CC00
01DC00
01FC00
01DE08
01CE04
01CE04
01CF02
01C782
01E7C6
01E3FE
01E1FC
01E078
01E000
01E000
01E000
03F000
3FFF00
ENDCHAR
STARTCHAR l
ENCODING 108
SWIDTH 354 0
DWIDTH 13 0
BBX 14 33 -1 1
BITMAP
0080
0080
0180
0380
0780
0F80
3F80
7F80
C780
0780
0780
0780
0780
0380
0380
0380
03C0
03C0
03C0
03C0
03C0
03C0
03C0
03C0
01C0
01C0
01C0
01C0
01C0
01C0
01E0
03F0
1FFC
ENDCHAR
STARTCHAR m
ENCODING 109
SWIDTH 708 0
DWIDTH 25 0
BBX 24 16 1 3
BITMAP
040000
0C0000
7C7878
BEFDFC
1F3D3C
1E1E1C
0E1E1E
0E1C1E
0E1C1C
0E1C1C
0E1E1C
0E7E3C
0E017C
7F801C
004006
000003
ENDCHAR
STARTCHAR n
ENCODING 110
SWIDTH 584 0
DWIDTH 21 0
BBX 21 23 0 -1
BITMAP
060000
060000
0E0780
1E1FC0
7E3FE0
8E23E0
0F41E0
0F81F0
0F80F0
0780F0
0780F0
0780E0
0780E0
0380E0
0300E0
0380E0
0380E0
0380E0
0381E0
038FE0
1FE1E0
000030
000008
ENDCHAR
STARTCHAR o
ENCODING 111
SWIDTH 503 0
DWIDTH 18 0
BBX 17 17 1 3
BITMAP
07F000
1E3800
3C1E00
780E00
780F00
F80F00
F80700
F80780
F80780
F80780
F80700
F80700
780700
7C0600
3C0C00
1F1800
07E000
ENDCHAR
STARTCHAR p
ENCODING 112
SWIDTH 509 0
DWIDTH 18 0
BBX 17 33 0 -14
BITMAP
020000
060000
0E3C00
3EFF00
DF8F00
0F0780
0E0780
0E0780
0E0380
0E0380
0E0780
0E0780
0E0780
0E0700
0F0E00
0F1C00
0EF800
0E0000
0E0000
0E0000
0E0000
0E0000
0E0000
0E0000
0E0000
0E0000
0F0000
1F0000
1F0000
1F0000
1F0000
FFC000
00E000
ENDCHAR
STARTCHAR q
ENCODING 113
SWIDTH 505 0
DWIDTH 18 0
BBX 18 33 0 -15
BITMAP
001F80
0F9E00
3C7C00
781C00
781C00
F01C00
F01C00
F01C00
F01C00
781C00
781C00
3C3C00
1FDC00
001C00
001C00
001C00
001C00
001C00
001C00
001C00
001C00
001C00
001C00
001C00
001C00
001C00
001C00
001C00
001C00
003C00
03FE00
001F00
0003C0
ENDCHAR
STARTCHAR r
ENCODING 114
SWIDTH 414 0
DWIDTH 15 0
BBX 16 25 1 0
BITMAP
003C
0042
0483
0C87
1D0F
FD1F
3D1F
1F0E
1E00
1E00
1E00
1E00
1E00
1E00
0E00
0E00
0F00
0F00
0F00
0F00
0F00
0F00
0F80
1FF0
F000
ENDCHAR
STARTCHAR s
ENCODING 115
SWIDTH 482 0
DWIDTH 17 0
BBX 18 27 -1 -4
BITMAP
000100
00FF00
018700
030200
070200
070200
078200
078200
03C000
03E000
01F000
00F800
007C00
003E00
003F00
001F80
020F80
0407C0
0407C0
0C03C0
1C03C0
1C03C0
3C0380
4C0380
860700
030E00
00FC00
ENDCHAR
STARTCHAR t
ENCODING 116
SWIDTH 434 0
DWIDTH 16 0
BBX 15 28 1 -1
BITMAP
00C0
00C0
00C0
01C0
0180
0380
0780
0FF8
FF80
0F00
0F00
1E00
1E00
1E00
1E00
3C00
3C00
3C00
3C00
3C00
3C0C
3C1E
3C1E
1C0C
1E04
0E04
0708
03F0
ENDCHAR
STARTCHAR u
ENCODING 117
SWIDTH 744 0
DWIDTH 27 0
BBX 27 19 0 1
BITMAP
02001800
03007800
0707F800
1F007800
FF003800
07003800
07003800
07803800
07803800
07803800
07803800
03805C00
03C05C00
03C05C00
03E09FE0
01F19E00
01FF0000
00FF0000
007C0000
ENDCHAR
STARTCHAR v
ENCODING 118
SWIDTH 600 0
DWIDTH 22 0
BBX 21 22 0 -1
BITMAP
00C000
038000
0F8000
7F8000
8F8000
0783F8
07C0E0
07C0C0
03C0C0
03E080
01E080
01E080
00F100
00F100
007900
007A00
003E00
003E00
001C00
001C00
000C00
000800
ENDCHAR
STARTCHAR w
ENCODING 119
SWIDTH 745 0
DWIDTH 27 0
BBX 27 19 0 -1
BITMAP
00C000E0
03000F80
1F010300
FF030200
1F038200
0F878600
0F87C400
0F87C400
078BE400
07C9E400
07D1F800
03D0F800
03F0F800
03E07000
01E03000
01E03000
01C00000
00C00000
00800000
ENDCHAR
STARTCHAR x
ENCODING 120
SWIDTH 548 0
DWIDTH 20 0
BBX 20 22 0 0
BITMAP
003000
01C000
FF8000
1F8000
0FCFF0
07C300
03C200
03E400
01EC00
01F800
00F000
00F000
007800
007800
007800
00FC00
01BC00
031E00
0E1F00
391FE0
001800
00E000
ENDCHAR
STARTCHAR y
ENCODING 121
SWIDTH 659 0
DWIDTH 24 0
BBX 23 36 0 -16
BITMAP
004000
018000
070002
3E07FC
FE01F8
1E00F8
1E0078
1E0078
1E0078
1E0078
0E0078
0F0078
0F0078
0F00F8
0780F0
0780F0
07C170
03E370
01FE70
00F870
000060
000060
000060
0000E0
0000C0
0000C0
03C0C0
07E0C0
0FE180
09E180
09C100
080300
080600
080C00
061800
03E000
ENDCHAR
STARTCHAR z
ENCODING 122
SWIDTH 460 0
DWIDTH 17 0
BBX 16 20 1 0
BITMAP
F000
FFF8
E078
C078
80F0
80F0
81E0
81E0
83C0
03C0
0780
0F80
0F01
1F01
1E01
3E03
7E03
7C1E
FFFE
E000
ENDCHAR
STARTCHAR braceleft
ENCODING 123
SWIDTH 460 0
DWIDTH 17 0
BBX 16 45 1 -11
BITMAP
007C
00C2
0180
0380
0380
0380
0380
0380
03C0
03C0
03C0
03C0
03E0
03E0
01E0
01E0
03E0
03C0
07C0
0F80
3E00
F800
3000
0C00
0700
0300
0380
0380
03C0
03C0
03C0
03C0
03C0
03C0
03C0
03C0
03C0
03C0
03C0
03C1
03C1
03E1
01E2
00FE
007C
ENDCHAR
STARTCHAR bar
ENCODING 124
SWIDTH 368 0
DWIDTH 13 0
BBX 2 38 6 -7
BITMAP
80
80
80
80
80
80
80
80
80
80
80
80
80
80
80
80
80
80
80
80
80
80
80
80
80
80
80
80
80
80
80
40
40
40
40
40
40
40
ENDCHAR
STARTCHAR braceright
ENCODING 125
SWIDTH 476 0
DWIDTH 17 0
BBX 16 38 0 -9
BITMAP
1F80
3FC0
63E0
C3E0
81F0
01F0
01F0
01F0
01F0
01F0
00F0
00F0
00F0
0070
0038
000F
0006
000C
001C
001C
001C
001C
001E
001E
000E
000E
000F
000F
0007
0007
0007
0007
0007
0006
0006
000C
0038
01E0
ENDCHAR
STARTCHAR asciitilde
ENCODING 126
SWIDTH 733 0
DWIDTH 26 0
BBX 23 7 2 6
BITMAP
000002
0F8004
1FE00C
21FC38
407FF8
801FF0
8007C0
ENDCHAR
STARTCHAR nonbreakingspace
ENCODING 160
SWIDTH 270 0
DWIDTH 10 0
BBX 1 1 0 0
BITMAP
00
ENDCHAR
STARTCHAR exclamdown
ENCODING 161
SWIDTH 247 0
DWIDTH 9 0
BBX 5 38 2 -4
BITMAP
70
F8
F8
F8
70
00
00
00
00
20
20
30
30
30
30
30
30
30
30
30
78
78
78
78
78
78
78
78
78
F8
F8
F8
F8
F8
F8
F8
78
70
ENDCHAR
STARTCHAR cent
ENCODING 162
SWIDTH 799 0
DWIDTH 29 0
BBX 17 31 6 -7
BITMAP
040000
040000
020000
020000
03F000
070C00
0E0600
1D0700
390700
790700
710F80
708F00
F08F00
F08600
F08000
F04000
F04000
F84000
F84080
7C2180
7C2100
3F2700
1FFE00
0FFC00
03F000
001000
001000
001800
000800
000800
000400
ENDCHAR
STARTCHAR sterling
ENCODING 163
SWIDTH 799 0
DWIDTH 29 0
BBX 20 33 5 -5
BITMAP
00FC00
038600
070300
0E0380
0E0780
1C0F80
1C1F80
1E1F80
1E1F80
1E1F00
1E0E00
1E0000
1F0000
1F0000
1FBC00
0FC000
3FC000
E7C000
07E000
07E000
03E000
03E000
01F000
01F000
00F020
00E030
00E010
1FE010
61E010
40FC30
419FE0
4307C0
3C0000
ENDCHAR
STARTCHAR currency
ENCODING 164
SWIDTH 732 0
DWIDTH 26 0
BBX 22 25 2 1
BITMAP
000080
000180
000300
800300
61FE00
360700
1C0180
1800C0
300060
300060
600060
600060
600060
600060
6000C0
6000C0
300180
380300
1C0F80
0FF0E0
1C0030
180018
18000C
300000
300000
ENDCHAR
STARTCHAR yen
ENCODING 165
SWIDTH 799 0
DWIDTH 29 0
BBX 27 38 1 -5
BITMAP
000C0000
00380000
FFF00020
0FE000C0
07E00700
03F07E00
01F00C00
01F00800
00F81800
00781000
007C1000
003C2000
003E2000
001F4000
001FC000
001FC000
000FC000
000FC000
00078000
00078000
01FFFFC0
00078000
00078000
0007FE00
01FF8000
00078000
00078000
00078000
00078000
00078000
00078000
00078000
00078000
000F8000
000FE000
001FF800
003C0000
01C00000
ENDCHAR
STARTCHAR brokenbar
ENCODING 166
SWIDTH 341 0
DWIDTH 12 0
BBX 1 42 6 -10
BITMAP
80
80
80
80
80
80
80
80
80
80
80
80
80
80
80
00
00
00
00
00
80
80
80
80
80
80
80
80
80
80
80
80
80
80
80
80
80
80
80
80
80
80
ENDCHAR
STARTCHAR section
ENCODING 167
SWIDTH 546 0
DWIDTH 20 0
BBX 16 41 2 -11
BITMAP
01F0
061C
0C0E
180E
380F
380F
381F
3C1F
3C0E
3E00
3F00
1F80
1FC0
1FF0
33F8
61FC
E07E
E01E
E00F
F007
F803
7C03
7E03
3F82
1FC6
0FEC
03F8
00F8
007C
001C
000E
0006
0006
0002
0002
0E02
0F02
0F84
0F8C
0FF8
03E0
ENDCHAR
STARTCHAR dieresis
ENCODING 168
SWIDTH 393 0
DWIDTH 14 0
BBX 8 4 4 23
BITMAP
73
F7
F7
66
ENDCHAR
STARTCHAR copyright
ENCODING 169
SWIDTH 1023 0
DWIDTH 37 0
BBX 33 33 2 -5
BITMAP
000FF80000
0078070000
00C000C000
0300007000
0600001800
0C00200C00
1800200600
1000200600
3007E00300
2018600300
6030200300
6070100180
60F0100180
C0E0100180
C0E0000180
C0E0080180
C0F0080180
C0F0080180
C0F0080180
C078080380
C03C100300
C01FF00300
6007C00300
6000000600
7000000600
3000000C00
3800001C00
1C00003800
0E00007000
078001E000
03F00F8000
00FFFE0000
001FF00000
ENDCHAR
STARTCHAR ordfeminine
ENCODING 170
SWIDTH 558 0
DWIDTH 20 0
BBX 16 18 2 11
BITMAP
1F00
6380
C1C0
E0C0
E0C0
F0E0
F0E0
E0E0
0FE0
38E0
60E1
E0E1
E0E1
E0E1
F173
FF7E
7E1C
3C00
ENDCHAR
STARTCHAR guillemotleft
ENCODING 171
SWIDTH 608 0
DWIDTH 22 0
BBX 18 32 2 -9
BITMAP
000080
000080
000080
000080
001080
003180
002180
006100
00C300
01C300
038600
078600
0F0E00
1E1E00
7E3E00
FC3E00
FC1F00
7E0F00
3F0780
1F0780
0F8380
0781C0
03C1C0
01E1C0
00E0C0
0070C0
007040
003840
001840
000800
000C00
000400
ENDCHAR
STARTCHAR logicalnot
ENCODING 172
SWIDTH 616 0
DWIDTH 22 0
BBX 19 8 1 8
BITMAP
FFFFE0
FFFFE0
000060
000060
000060
000060
000060
000040
ENDCHAR
STARTCHAR uni00AD
ENCODING 173
SWIDTH 436 0
DWIDTH 16 0
BBX 12 1 2 7
BITMAP
FFF0
ENDCHAR
STARTCHAR registered
ENCODING 174
SWIDTH 1048 0
DWIDTH 38 0
BBX 34 33 2 -8
BITMAP
0007FC0000
0038038000
00C0006000
0300001000
0600000C00
0C01F00400
18FE3C0200
303C1E0100
301C1E0100
601C1E0080
601C1E0080
601C1E0080
C01C1C0040
C01C380040
C01CF00040
C01FC00040
C01DE00040
C01CE04040
C01CF02040
C01C702040
C01C782040
601E3C6080
603E1FC080
607F078080
31FF800100
3000400100
1800000200
0C00000400
0600000800
0300001000
01C0006000
0078038000
0007FC0000
ENDCHAR
STARTCHAR macron
ENCODING 175
SWIDTH 382 0
DWIDTH 14 0
BBX 10 1 2 28
BITMAP
FFC0
ENDCHAR
STARTCHAR degree
ENCODING 176
SWIDTH 346 0
DWIDTH 12 0
BBX 9 9 2 26
BITMAP
3C00
7F00
E300
C180
C180
C180
C100
6300
3C00
ENDCHAR
STARTCHAR plusminus
ENCODING 177
SWIDTH 580 0
DWIDTH 21 0
BBX 18 13 1 5
BITMAP
004000
004000
004000
004000
00C000
7FFFC0
004000
004000
004000
004000
000000
7FFC00
FFFE00
ENDCHAR
STARTCHAR twosuperior
ENCODING 178
SWIDTH 365 0
DWIDTH 13 0
BBX 12 19 1 13
BITMAP
0780
0FC0
11E0
20E0
00E0
00E0
00E0
00E0
01C0
0380
0700
0C00
3000
F010
3C20
1FC0
0780
0780
0300
ENDCHAR
STARTCHAR threesuperior
ENCODING 179
SWIDTH 371 0
DWIDTH 13 0
BBX 12 17 0 14
BITMAP
7F80
3F00
3F00
2200
4400
0700
0FC0
03E0
80F0
8070
8070
8070
4070
40F0
61E0
3FC0
0F80
ENDCHAR
STARTCHAR acute
ENCODING 180
SWIDTH 234 0
DWIDTH 8 0
BBX 5 7 2 27
BITMAP
18
38
30
70
60
C0
80
ENDCHAR
STARTCHAR mu
ENCODING 181
SWIDTH 634 0
DWIDTH 23 0
BBX 21 29 2 -11
BITMAP
E00400
E01E00
E01E00
E01E00
E01E00
E01E00
E00E00
E00E00
E00E20
E00E10
F00E18
F00F08
F81F08
E81708
E42798
E3C3F0
F001E0
F00000
F00000
F00000
F00000
F00000
F00000
F00000
F00000
F80000
780000
780000
780000
ENDCHAR
STARTCHAR paragraph
ENCODING 182
SWIDTH 707 0
DWIDTH 25 0
BBX 26 43 0 -13
BITMAP
00000180
00000700
00003C00
007FF800
07F07800
1FF07000
3FF07000
7FF07000
7FE07000
FFE07000
FFE07000
FFE07000
FFE07000
FFE07000
7FE07000
7FE07000
3FE07000
0FE07000
03E07000
00E07000
00E07000
00E07000
00E07000
00E07000
00F07000
00F07000
00707000
00707000
00707000
00707000
00707000
00707800
00707800
00707800
00707C00
00707E00
00707FC0
00700000
00F00000
00F00000
01F00000
07000000
38000000
ENDCHAR
STARTCHAR periodcentered
ENCODING 183
SWIDTH 238 0
DWIDTH 9 0
BBX 5 6 2 11
BITMAP
70
F8
F8
F8
F8
70
ENDCHAR
STARTCHAR cedilla
ENCODING 184
SWIDTH 332 0
DWIDTH 12 0
BBX 8 12 2 -9
BITMAP
10
10
10
10
3E
1E
07
07
87
8F
FE
3C
ENDCHAR
STARTCHAR onesuperior
ENCODING 185
SWIDTH 336 0
DWIDTH 12 0
BBX 10 16 1 16
BITMAP
0100
0300
0300
0F00
1F00
6700
0600
0600
0600
0700
0700
0700
0F00
9F00
5F80
01C0
ENDCHAR
STARTCHAR ordmasculine
ENCODING 186
SWIDTH 503 0
DWIDTH 18 0
BBX 16 16 1 11
BITMAP
07E0
1FF8
30FC
603E
401E
C00F
C00F
C007
C007
C007
E007
6006
7006
3804
1E08
07F0
ENDCHAR
STARTCHAR guillemotright
ENCODING 187
SWIDTH 778 0
DWIDTH 28 0
BBX 24 34 2 -10
BITMAP
008000
004000
002000
002000
803000
801800
C01C00
600E00
700700
380380
3C01E0
1F00F0
0FE07C
07FC3F
01FE3F
00FC7E
00F8FC
00E1F0
01C3E0
0383C0
070780
060F00
0C0E00
1C1C00
181C00
301800
303800
203000
603000
403000
002000
002000
002000
004000
ENDCHAR
STARTCHAR onequarter
ENCODING 188
SWIDTH 876 0
DWIDTH 32 0
BBX 30 33 1 0
BITMAP
000000C0
01000080
03000100
03000300
0F000600
1F000400
67000C00
06001800
06001000
06003000
07006000
0700C000
0700C200
0F018200
9F030600
5F860600
01C60E00
000C0E00
00181E00
00101700
00302700
00604710
00C04710
00C08730
01808770
03013FF0
0201FFF0
06020380
0C000380
180003C0
100007E0
30001FFC
20001800
ENDCHAR
STARTCHAR onehalf
ENCODING 189
SWIDTH 762 0
DWIDTH 27 0
BBX 26 34 1 -1
BITMAP
000000C0
01000080
03000100
03000300
0F000600
1F000400
67000C00
06001800
06001000
06003000
07006000
0700C000
0700C000
0F018000
9F030000
5F861E00
01C63F00
000C4780
00188380
00100380
00300380
00600380
00C00780
00C00700
01800E00
03001C00
02003000
0600C000
0C03C040
1800F080
10007F00
30001E00
20001E00
00000C00
ENDCHAR
STARTCHAR threequarters
ENCODING 190
SWIDTH 922 0
DWIDTH 33 0
BBX 33 33 0 0
BITMAP
0000001800
0000001000
7F80002000
3F00006000
3F0000C000
220000C000
4400018000
0700030000
0FC0020000
03E0060000
80F00C0000
8070180000
8070184000
807030C000
407060C000
40F0C1C000
61E0C1C000
3FC183C000
0F8303C000
000205C000
000604C000
000C08C400
001808E400
001810E400
003020EC00
006027FE00
00407FFE00
00C000F000
018000F000
030000F000
020000FC00
060003FF80
0400060000
ENDCHAR
STARTCHAR questiondown
ENCODING 191
SWIDTH 571 0
DWIDTH 21 0
BBX 19 32 1 -4
BITMAP
00F000
01F800
01F800
01F800
01F800
00F000
000000
00C000
006000
002000
002000
002000
006000
006000
01C000
038000
078000
0F0F00
1E1FC0
3E1FE0
7C1FE0
7C1FE0
FC0FE0
FC07E0
FC01E0
FC00E0
FC00C0
7C00C0
7E0080
3F0180
1F8200
03FC00
ENDCHAR
STARTCHAR Agrave
ENCODING 192
SWIDTH 784 0
DWIDTH 28 0
BBX 29 40 0 -3
BITMAP
03000000
03800000
03C00000
01C00000
00E00000
00600000
00300000
00000000
00020000
000F0000
003F0000
03FF0000
001F8000
001F8000
00178000
0013C000
0033C000
0023C000
0021E000
0061E000
0041E000
0041F000
00C0F000
00F0F800
008FF800
0181F800
01007C00
03007C00
03003C00
02003E00
06003E00
06001E00
0E001F00
FE001F00
0F001F00
01800F80
00000F80
00000FE0
00001FF8
0000F000
ENDCHAR
STARTCHAR Aacute
ENCODING 193
SWIDTH 784 0
DWIDTH 28 0
BBX 29 41 0 -3
BITMAP
00018000
00030000
00070000
00060000
000C0000
000C0000
00080000
00000000
00000000
00020000
000F0000
003F0000
03FF0000
001F8000
001F8000
00178000
0013C000
0033C000
0023C000
0021E000
0061E000
0041E000
0041F000
00C0F000
00F0F800
008FF800
0181F800
01007C00
03007C00
03003C00
02003E00
06003E00
06001E00
0E001F00
FE001F00
0F001F00
01800F80
00000F80
00000FE0
00001FF8
0000F000
ENDCHAR
STARTCHAR Acircumflex
ENCODING 194
SWIDTH 784 0
DWIDTH 28 0
BBX 29 40 0 -3
BITMAP
00040000
000E0000
000F0000
001B8000
0031C000
0060E000
00803800
01000000
00020000
000F0000
003F0000
03FF0000
001F8000
001F8000
00178000
0013C000
0033C000
0023C000
0021E000
0061E000
0041E000
0041F000
00C0F000
00F0F800
008FF800
0181F800
01007C00
03007C00
03003C00
02003E00
06003E00
06001E00
0E001F00
FE001F00
0F001F00
01800F80
00000F80
00000FE0
00001FF8
0000F000
ENDCHAR
STARTCHAR Atilde
ENCODING 195
SWIDTH 784 0
DWIDTH 28 0
BBX 29 40 0 -3
BITMAP
00700000
00F80000
013E2000
011FE000
020FC000
00038000
00000000
00000000
00020000
000F0000
003F0000
03FF0000
001F8000
001F8000
00178000
0013C000
0033C000
0023C000
0021E000
0061E000
0041E000
0041F000
00C0F000
00F0F800
008FF800
0181F800
01007C00
03007C00
03003C00
02003E00
06003E00
06001E00
0E001F00
FE001F00
0F001F00
01800F80
00000F80
00000FE0
00001FF8
0000F000
ENDCHAR
STARTCHAR Adieresis
ENCODING 196
SWIDTH 784 0
DWIDTH 28 0
BBX 29 39 0 -3
BITMAP
00700000
00F8E000
00F9E000
00F9E000
0070E000
00000000
00000000
00020000
000F0000
003F0000
03FF0000
001F8000
001F8000
00178000
0013C000
0033C000
0023C000
0021E000
0061E000
0041E000
0041F000
00C0F000
00F0F800
008FF800
0181F800
01007C00
03007C00
03003C00
02003E00
06003E00
06001E00
0E001F00
FE001F00
0F001F00
01800F80
00000F80
00000FE0
00001FF8
0000F000
ENDCHAR
STARTCHAR Aring
ENCODING 197
SWIDTH 784 0
DWIDTH 28 0
BBX 29 42 0 -3
BITMAP
000F0000
00118000
00208000
00208000
0020C000
00208000
00318000
003F8000
000E0000
00000000
00020000
000F0000
003F0000
03FF0000
001F8000
001F8000
00178000
0013C000
0033C000
0023C000
0021E000
0061E000
0041E000
0041F000
00C0F000
00F0F800
008FF800
0181F800
01007C00
03007C00
03003C00
02003E00
06003E00
06001E00
0E001F00
FE001F00
0F001F00
01800F80
00000F80
00000FE0
00001FF8
0000F000
ENDCHAR
STARTCHAR AE
ENCODING 198
SWIDTH 1172 0
DWIDTH 42 0
BBX 42 36 0 -6
BITMAP
000000007000
00000003F000
0000001FE000
000007E02000
0003FFC02000
00003F802000
00001B802000
00001BC02000
000013C04000
000013C00000
000023C00000
000023C04000
000023C04000
000043C0C000
000043E0C000
000083E3C000
000083FFC000
000103E0C000
000103E04080
000103E04080
0003FFE04080
000301F00080
000401F00180
000401F00180
000801F001C0
000801F803C0
001001F80FC0
001001F83FC0
003001FFF000
002001FF0000
006001F80000
00C001E00000
01C003800000
03C006000000
0FC018000000
FFF800000000
ENDCHAR
STARTCHAR Ccedilla
ENCODING 199
SWIDTH 742 0
DWIDTH 27 0
BBX 26 45 0 -15
BITMAP
00000100
00000100
00000200
00000200
00000200
003FEF00
01E03F00
07800F00
0F000700
1E000300
3E000100
3C000180
7C000080
7C000000
7C000000
F8000000
F8000000
F8000000
F8000000
F8000000
F8000040
FC000040
FC000040
FC000040
7C000040
7E000040
7E000080
3F000080
3F800180
1FC00300
0FE00600
03F81C00
01FFF800
003FC000
00020000
00020000
00020000
00078000
0003C000
0000E000
0000E000
0020E000
0011E000
000FC000
00078000
ENDCHAR
STARTCHAR Egrave
ENCODING 200
SWIDTH 557 0
DWIDTH 20 0
BBX 19 42 1 -4
BITMAP
300000
380000
1C0000
0E0000
060000
030000
010000
000000
000000
000380
FBFF80
7F0180
3E0080
3E0080
1E0080
1E0000
1E0000
1E0000
1F0000
1F0000
1F0800
0F0800
0F0800
0FF800
0FF800
0F1800
0F0800
0F0800
0F0800
0F1000
070000
070000
070000
070000
070000
078020
078020
078020
078060
0780E0
FFFFE0
001FC0
ENDCHAR
STARTCHAR Eacute
ENCODING 201
SWIDTH 557 0
DWIDTH 20 0
BBX 19 42 1 -4
BITMAP
000C00
001800
003800
003000
007000
006000
004000
000000
000000
000380
FBFF80
7F0180
3E0080
3E0080
1E0080
1E0000
1E0000
1E0000
1F0000
1F0000
1F0800
0F0800
0F0800
0FF800
0FF800
0F1800
0F0800
0F0800
0F0800
0F1000
070000
070000
070000
070000
070000
078020
078020
078020
078060
0780E0
FFFFE0
001FC0
ENDCHAR
STARTCHAR Ecircumflex
ENCODING 202
SWIDTH 557 0
DWIDTH 20 0
BBX 19 42 1 -4
BITMAP
004000
00C000
01E000
037000
023800
040E00
080300
100000
200000
000380
FBFF80
7F0180
3E0080
3E0080
1E0080
1E0000
1E0000
1E0000
1F0000
1F0000
1F0800
0F0800
0F0800
0FF800
0FF800
0F1800
0F0800
0F0800
0F0800
0F1000
070000
070000
070000
070000
070000
078020
078020
078020
078060
0780E0
FFFFE0
001FC0
ENDCHAR
STARTCHAR Edieresis
ENCODING 203
SWIDTH 557 0
DWIDTH 20 0
BBX 19 39 1 -4
BITMAP
070000
0F9C00
0F9E00
0F1E00
071C00
000000
000380
FBFF80
7F0180
3E0080
3E0080
1E0080
1E0000
1E0000
1E0000
1F0000
1F0000
1F0800
0F0800
0F0800
0FF800
0FF800
0F1800
0F0800
0F0800
0F0800
0F1000
070000
070000
070000
070000
070000
078020
078020
078020
078060
0780E0
FFFFE0
001FC0
ENDCHAR
STARTCHAR Igrave
ENCODING 204
SWIDTH 438 0
DWIDTH 16 0
BBX 20 45 -2 -6
BITMAP
070000
070000
038000
01C000
00C000
006000
002000
000000
300FF0
4FFE00
03F800
03F800
01F000
01F000
01F000
01F000
01E000
01E000
01E000
01E000
01E000
01E000
01E000
01E000
01E000
01C000
01C000
01C000
01C000
01C000
01C000
01C000
01C000
01C000
01C000
01C000
01C000
01C000
01C000
01C000
01C000
03E000
07FC00
1E0000
E00000
ENDCHAR
STARTCHAR Iacute
ENCODING 205
SWIDTH 438 0
DWIDTH 16 0
BBX 20 45 -2 -6
BITMAP
000300
000700
000600
000E00
000C00
001800
001000
000000
300FF0
4FFE00
03F800
03F800
01F000
01F000
01F000
01F000
01E000
01E000
01E000
01E000
01E000
01E000
01E000
01E000
01E000
01C000
01C000
01C000
01C000
01C000
01C000
01C000
01C000
01C000
01C000
01C000
01C000
01C000
01C000
01C000
01C000
03E000
07FC00
1E0000
E00000
ENDCHAR
STARTCHAR Icircumflex
ENCODING 206
SWIDTH 438 0
DWIDTH 16 0
BBX 20 45 -2 -6
BITMAP
002000
003000
007800
00DC00
018E00
030380
0601C0
080000
300FF0
4FFE00
03F800
03F800
01F000
01F000
01F000
01F000
01E000
01E000
01E000
01E000
01E000
01E000
01E000
01E000
01E000
01C000
01C000
01C000
01C000
01C000
01C000
01C000
01C000
01C000
01C000
01C000
01C000
01C000
01C000
01C000
01C000
03E000
07FC00
1E0000
E00000
ENDCHAR
STARTCHAR Idieresis
ENCODING 207
SWIDTH 438 0
DWIDTH 16 0
BBX 20 43 -2 -6
BITMAP
038000
07C700
07CF00
07CF00
038700
000000
300FF0
4FFE00
03F800
03F800
01F000
01F000
01F000
01F000
01E000
01E000
01E000
01E000
01E000
01E000
01E000
01E000
01E000
01C000
01C000
01C000
01C000
01C000
01C000
01C000
01C000
01C000
01C000
01C000
01C000
01C000
01C000
01C000
01C000
03E000
07FC00
1E0000
E00000
ENDCHAR
STARTCHAR Eth
ENCODING 208
SWIDTH 730 0
DWIDTH 26 0
BBX 27 29 0 -8
BITMAP
003FC000
3FC1F800
03C07E00
03C03F00
03C01F80
03C01F80
03C00FC0
03C00FC0
03C00FE0
03C00FE0
03C00FE0
03C00FE0
03FC0FE0
7FC00FE0
43C00FE0
03C00FC0
03C00FC0
03C00F80
03C01F80
03C03F00
03C03E00
07C0FC00
07E1F000
07FFC000
0FFC0000
0F000000
18000000
60000000
80000000
ENDCHAR
STARTCHAR Ntilde
ENCODING 209
SWIDTH 799 0
DWIDTH 29 0
BBX 28 43 0 -8
BITMAP
00070000
000FC000
0009E200
0010FE00
00107E00
00003C00
00000000
00000000
00000000
00000000
FF800030
0FC07FC0
0FE00F00
07F00700
05F80300
04FC0200
047C0200
047E0200
043F0200
041F8200
040FC200
040FE200
0407F200
0403FE00
0403FE00
0401FE00
0400FE00
04007E00
04003E00
04003E00
04001E00
04000E00
04000600
04000200
04000000
04000000
04000000
04000000
0E000000
0E000000
1F000000
FF800000
01E00000
ENDCHAR
STARTCHAR Ograve
ENCODING 210
SWIDTH 747 0
DWIDTH 27 0
BBX 27 37 0 1
BITMAP
01800000
03C00000
01C00000
00E00000
00700000
00300000
00100000
00080000
00000000
00000000
007F8000
0381E000
07007800
0E003C00
1C001E00
3C001F00
38000F80
78000F80
78000FC0
F80007C0
F80007C0
F00007C0
F00007C0
F80007E0
F80007C0
F80007C0
F80007C0
F80007C0
780007C0
7C000780
3C000780
3E000F00
1E000F00
0F001E00
07803800
01E07000
007F8000
ENDCHAR
STARTCHAR Oacute
ENCODING 211
SWIDTH 747 0
DWIDTH 27 0
BBX 27 36 0 1
BITMAP
00018000
00030000
00070000
00060000
000C0000
000C0000
00080000
00000000
00000000
007F8000
0381E000
07007800
0E003C00
1C001E00
3C001F00
38000F80
78000F80
78000FC0
F80007C0
F80007C0
F00007C0
F00007C0
F80007E0
F80007C0
F80007C0
F80007C0
F80007C0
780007C0
7C000780
3C000780
3E000F00
1E000F00
0F001E00
07803800
01E07000
007F8000
ENDCHAR
STARTCHAR Ocircumflex
ENCODING 212
SWIDTH 747 0
DWIDTH 27 0
BBX 27 36 0 1
BITMAP
00080000
001C0000
003E0000
00270000
00438000
0081C000
01006000
02000000
00000000
007F8000
0381E000
07007800
0E003C00
1C001E00
3C001F00
38000F80
78000F80
78000FC0
F80007C0
F80007C0
F00007C0
F00007C0
F80007E0
F80007C0
F80007C0
F80007C0
F80007C0
780007C0
7C000780
3C000780
3E000F00
1E000F00
0F001E00
07803800
01E07000
007F8000
ENDCHAR
STARTCHAR Otilde
ENCODING 213
SWIDTH 747 0
DWIDTH 27 0
BBX 27 35 0 1
BITMAP
00700000
00FC0000
009E2000
010FE000
0107E000
0003C000
00000000
00000000
007F8000
0381E000
07007800
0E003C00
1C001E00
3C001F00
38000F80
78000F80
78000FC0
F80007C0
F80007C0
F00007C0
F00007C0
F80007E0
F80007C0
F80007C0
F80007C0
F80007C0
780007C0
7C000780
3C000780
3E000F00
1E000F00
0F001E00
07803800
01E07000
007F8000
ENDCHAR
STARTCHAR Odieresis
ENCODING 214
SWIDTH 747 0
DWIDTH 27 0
BBX 27 35 0 1
BITMAP
00700000
00F8C000
00F9E000
00F9E000
0071C000
00000000
00000000
00000000
007F8000
0381E000
07007800
0E003C00
1C001E00
3C001F00
38000F80
78000F80
78000FC0
F80007C0
F80007C0
F00007C0
F00007C0
F80007E0
F80007C0
F80007C0
F80007C0
F80007C0
780007C0
7C000780
3C000780
3E000F00
1E000F00
0F001E00
07803800
01E07000
007F8000
ENDCHAR
STARTCHAR multiply
ENCODING 215
SWIDTH 541 0
DWIDTH 19 0
BBX 16 20 2 1
BITMAP
0003
0006
000C
0008
6018
3030
1860
0C40
0780
0380
03C0
0660
0430
0C0C
1800
3000
3000
6000
C000
C000
ENDCHAR
STARTCHAR Oslash
ENCODING 216
SWIDTH 747 0
DWIDTH 27 0
BBX 26 34 0 -2
BITMAP
00000080
00000180
00000100
00000300
007F0600
0381E400
0700FC00
0E007C00
1C003E00
3C003F00
38007F00
7800CF80
7800CF80
F8018FC0
F8030FC0
F00207C0
F00607C0
F00C07C0
F81807C0
F81807C0
F83007C0
F86007C0
78400780
7CC00780
3D800F80
3F000F00
1F000E00
0F001C00
07803800
0FE0F000
187F8000
30000000
20000000
20000000
ENDCHAR
STARTCHAR Ugrave
ENCODING 217
SWIDTH 690 0
DWIDTH 25 0
BBX 28 37 0 2
BITMAP
00300000
00380000
003C0000
001C0000
000E0000
00070000
00010000
00000000
00000000
00010000
000E0000
00780000
07F00000
FFE00000
1FE00000
0FE3FFF0
07C03E00
07C00E00
07C00E00
07C00600
07C00600
07C00400
07C00400
07C00400
07C00400
07C00400
07C00400
07C00400
03E00400
03E00400
03E00400
01E00800
01F00800
00F01000
007C3000
003FE000
000F8000
ENDCHAR
STARTCHAR Uacute
ENCODING 218
SWIDTH 690 0
DWIDTH 25 0
BBX 28 32 0 2
BITMAP
00000200
00000600
00000E00
00000C00
00011800
000E1800
00783000
07F00000
FFE00000
1FE00000
0FE3FFF0
07C03E00
07C00E00
07C00E00
07C00600
07C00600
07C00400
07C00400
07C00400
07C00400
07C00400
07C00400
07C00400
03E00400
03E00400
03E00400
01E00800
01F00800
00F01000
007C3000
003FE000
000F8000
ENDCHAR
STARTCHAR Ucircumflex
ENCODING 219
SWIDTH 690 0
DWIDTH 25 0
BBX 28 34 0 2
BITMAP
00030000
00030000
00078000
000DC000
0018E000
00103800
00210C00
004E0000
00F80000
07F00000
FFE00000
1FE00000
0FE3FFF0
07C03E00
07C00E00
07C00E00
07C00600
07C00600
07C00400
07C00400
07C00400
07C00400
07C00400
07C00400
07C00400
03E00400
03E00400
03E00400
01E00800
01F00800
00F01000
007C3000
003FE000
000F8000
ENDCHAR
STARTCHAR Udieresis
ENCODING 220
SWIDTH 690 0
DWIDTH 25 0
BBX 28 34 0 2
BITMAP
001C0000
003E3000
003E7800
003E7800
001C3000
00000000
00010000
000E0000
00780000
07F00000
FFE00000
1FE00000
0FE3FFF0
07C03E00
07C00E00
07C00E00
07C00600
07C00600
07C00400
07C00400
07C00400
07C00400
07C00400
07C00400
07C00400
03E00400
03E00400
03E00400
01E00800
01F00800
00F01000
007C3000
003FE000
000F8000
ENDCHAR
STARTCHAR Yacute
ENCODING 221
SWIDTH 796 0
DWIDTH 29 0
BBX 32 43 0 -5
BITMAP
00000200
00000600
00000E00
00000C00
00001800
00001000
00003000
00180000
01E00000
FF800380
1F8000FF
0FC000C0
07C00080
03E00100
01F00200
00F80200
007C0400
003E0800
003F1800
001FB000
000FE000
000FE000
0007C000
0007C000
0003C000
0003C000
0003C000
0003C000
0003C000
0003C000
0003C000
0003C000
0003C000
0003C000
0003C000
0003C000
0003C000
0007C000
0007E000
000FE000
00FFE000
00007800
00000C00
ENDCHAR
STARTCHAR Thorn
ENCODING 222
SWIDTH 479 0
DWIDTH 17 0
BBX 17 36 1 -3
BITMAP
FFC000
3E0000
1E0000
1C0000
1C0000
1C0000
1E0000
1FF000
1E3E00
1C1F00
1C0F00
1C0F80
1C0F80
1C0F80
1C0F80
1C0F80
1C0F00
1C1F00
1C3E00
1FF800
1C0000
1C0000
1C0000
1C0000
1C0000
1C0000
1C0000
1C0000
1C0000
1C0000
3C0000
3C0000
3C0000
7E0000
FF8000
00C000
ENDCHAR
STARTCHAR germandbls
ENCODING 223
SWIDTH 591 0
DWIDTH 21 0
BBX 22 39 -1 -4
BITMAP
07C000
187000
103000
303800
203800
601800
601C00
601C00
603800
603800
703800
707000
706000
70C000
318000
33FC00
383F00
380FC0
3807E0
3803F0
3C01F0
1C00F8
1C00F8
1C0078
1E007C
1E003C
0E003C
0F003C
0F003C
0F001C
0F8018
0F9C38
0F9C38
0F9E30
0FDFE0
1C0F80
300000
400000
800000
ENDCHAR
STARTCHAR agrave
ENCODING 224
SWIDTH 527 0
DWIDTH 19 0
BBX 20 35 1 -4
BITMAP
C00000
E00000
700000
380000
180000
0C0000
040000
000000
000000
07C000
18E000
107000
307800
303800
383800
3C3C00
3E3C00
3E3C00
1C3C00
003C00
001E00
0FFE00
381E00
701E00
701E00
E01E00
E01F00
F01F00
F86F00
FFEF10
7F8F10
1F0F90
0007E0
0007E0
0003C0
ENDCHAR
STARTCHAR aacute
ENCODING 225
SWIDTH 527 0
DWIDTH 19 0
BBX 20 35 1 -4
BITMAP
003000
003000
006000
00E000
00C000
018000
010000
000000
000000
07C000
18E000
107000
307800
303800
383800
3C3C00
3E3C00
3E3C00
1C3C00
003C00
001E00
0FFE00
381E00
701E00
701E00
E01E00
E01F00
F01F00
F86F00
FFEF10
7F8F10
1F0F90
0007E0
0007E0
0003C0
ENDCHAR
STARTCHAR acircumflex
ENCODING 226
SWIDTH 527 0
DWIDTH 19 0
BBX 20 34 1 -4
BITMAP
010000
038000
03C000
06E000
0C7000
183800
200E00
400000
07C000
18E000
107000
307800
303800
383800
3C3C00
3E3C00
3E3C00
1C3C00
003C00
001E00
0FFE00
381E00
701E00
701E00
E01E00
E01F00
F01F00
F86F00
FFEF10
7F8F10
1F0F90
0007E0
0007E0
0003C0
ENDCHAR
STARTCHAR atilde
ENCODING 227
SWIDTH 527 0
DWIDTH 19 0
BBX 20 33 1 -4
BITMAP
0E0000
1F8000
13C400
21FC00
20FC00
007800
000000
07C000
18E000
107000
307800
303800
383800
3C3C00
3E3C00
3E3C00
1C3C00
003C00
001E00
0FFE00
381E00
701E00
701E00
E01E00
E01F00
F01F00
F86F00
FFEF10
7F8F10
1F0F90
0007E0
0007E0
0003C0
ENDCHAR
STARTCHAR adieresis
ENCODING 228
SWIDTH 527 0
DWIDTH 19 0
BBX 20 31 1 -4
BITMAP
0E6000
1EE000
1EE000
0CC000
000000
07C000
18E000
107000
307800
303800
383800
3C3C00
3E3C00
3E3C00
1C3C00
003C00
001E00
0FFE00
381E00
701E00
701E00
E01E00
E01F00
F01F00
F86F00
FFEF10
7F8F10
1F0F90
0007E0
0007E0
0003C0
ENDCHAR
STARTCHAR aring
ENCODING 229
SWIDTH 527 0
DWIDTH 19 0
BBX 20 37 1 -4
BITMAP
03C000
046000
0C3000
083000
083000
0C3000
0C6000
07E000
03C000
000000
000000
07C000
18E000
107000
307800
303800
383800
3C3C00
3E3C00
3E3C00
1C3C00
003C00
001E00
0FFE00
381E00
701E00
701E00
E01E00
E01F00
F01F00
F86F00
FFEF10
7F8F10
1F0F90
0007E0
0007E0
0003C0
ENDCHAR
STARTCHAR ae
ENCODING 230
SWIDTH 700 0
DWIDTH 25 0
BBX 24 24 1 -3
BITMAP
0000F0
0003FC
00063E
1E081E
33080E
61900E
61B00E
70E00E
70E01C
78E01C
30E038
03E0F0
0CFFC0
30E002
70F001
60F001
E0F001
E0F803
E0FC03
E0BF07
F1BFFE
7F1FFE
7F0FFC
3C07F0
ENDCHAR
STARTCHAR ccedilla
ENCODING 231
SWIDTH 437 0
DWIDTH 16 0
BBX 15 31 1 -9
BITMAP
03E0
0CF8
107C
307C
207C
607C
6038
E000
E000
E008
E004
E004
F006
F006
7806
780C
7E1C
3FF8
1FF0
07E0
0100
0100
01C0
01E0
02F0
0070
0070
0870
0C70
07E0
03C0
ENDCHAR
STARTCHAR egrave
ENCODING 232
SWIDTH 434 0
DWIDTH 16 0
BBX 15 29 1 1
BITMAP
3000
7800
3800
1C00
0E00
0600
0200
0000
0000
03E0
0E38
1C1C
381C
381C
781E
701C
F01C
F01C
F038
F070
FFC4
F004
F004
7804
7804
3C04
3E0C
1FF8
07E0
ENDCHAR
STARTCHAR eacute
ENCODING 233
SWIDTH 434 0
DWIDTH 16 0
BBX 15 28 1 1
BITMAP
0030
0070
0060
00E0
00C0
0180
0100
0000
03E0
0E38
1C1C
381C
381C
781E
701C
F01C
F01C
F038
F070
FFC4
F004
F004
7804
7804
3C04
3E0C
1FF8
07E0
ENDCHAR
STARTCHAR ecircumflex
ENCODING 234
SWIDTH 434 0
DWIDTH 16 0
BBX 15 30 1 1
BITMAP
0100
0380
07C0
04E0
0870
1038
200C
4000
0000
0000
03E0
0E38
1C1C
381C
381C
781E
701C
F01C
F01C
F038
F070
FFC4
F004
F004
7804
7804
3C04
3E0C
1FF8
07E0
ENDCHAR
STARTCHAR edieresis
ENCODING 235
SWIDTH 434 0
DWIDTH 16 0
BBX 15 26 1 1
BITMAP
0730
0F70
0F70
0660
0000
0000
03E0
0E38
1C1C
381C
381C
781E
701C
F01C
F01C
F038
F070
FFC4
F004
F004
7804
7804
3C04
3E0C
1FF8
07E0
ENDCHAR
STARTCHAR igrave
ENCODING 236
SWIDTH 301 0
DWIDTH 11 0
BBX 11 29 -1 3
BITMAP
C000
E000
F000
7000
3800
1800
0400
0000
0000
0000
0080
0180
0F80
7F00
0F00
0F00
0F00
0F00
0F00
0F00
0F00
0F00
0F00
0F00
0E00
0E00
0F00
1F00
7FE0
ENDCHAR
STARTCHAR iacute
ENCODING 237
SWIDTH 301 0
DWIDTH 11 0
BBX 10 28 0 3
BITMAP
0080
0180
0380
0700
0600
0400
0800
0000
0000
0100
0300
1F00
FE00
1E00
1E00
1E00
1E00
1E00
1E00
1E00
1E00
1E00
1E00
1C00
1C00
1E00
3E00
FFC0
ENDCHAR
STARTCHAR icircumflex
ENCODING 238
SWIDTH 301 0
DWIDTH 11 0
BBX 13 28 -1 3
BITMAP
0200
0700
0F80
09C0
10E0
2070
4018
8000
0000
0080
0180
0F80
7F00
0F00
0F00
0F00
0F00
0F00
0F00
0F00
0F00
0F00
0F00
0E00
0E00
0F00
1F00
7FE0
ENDCHAR
STARTCHAR idieresis
ENCODING 239
SWIDTH 301 0
DWIDTH 11 0
BBX 10 25 0 3
BITMAP
1CC0
3DC0
3DC0
1980
0000
0000
0100
0300
1F00
FE00
1E00
1E00
1E00
1E00
1E00
1E00
1E00
1E00
1E00
1E00
1C00
1C00
1E00
3E00
FFC0
ENDCHAR
STARTCHAR eth
ENCODING 240
SWIDTH 476 0
DWIDTH 17 0
BBX 20 32 -3 -4
BITMAP
000200
000400
000400
03E800
1C3800
302E00
602700
804300
004380
0081C0
0001C0
0001C0
0001E0
0000E0
0000E0
0000E0
007CE0
00C3F0
01C1F0
0380F0
0380F0
078070
078070
078070
078070
078060
07C060
03C060
03E0C0
01F1C0
00FF80
003F00
ENDCHAR
STARTCHAR ntilde
ENCODING 241
SWIDTH 584 0
DWIDTH 21 0
BBX 21 31 0 -1
BITMAP
007000
00FC00
009F20
010FE0
0107E0
0003C0
000000
000000
060000
060000
0E0780
1E1FC0
7E3FE0
8E23E0
0F41E0
0F81F0
0F80F0
0780F0
0780F0
0780E0
0780E0
0380E0
0300E0
0380E0
0380E0
0380E0
0381E0
038FE0
1FE1E0
000030
000008
ENDCHAR
STARTCHAR ograve
ENCODING 242
SWIDTH 400 0
DWIDTH 14 0
BBX 23 29 1 6
BITMAP
00001C
00003E
00003E
00001E
00000E
600006
F00004
700004
380004
1C0008
0C0008
040010
000020
000040
000180
000600
0FF800
3DE000
78F000
70F000
F07800
F07800
F07800
F07800
F07800
F07000
70F000
39E000
0F8000
ENDCHAR
STARTCHAR oacute
ENCODING 243
SWIDTH 400 0
DWIDTH 14 0
BBX 23 29 1 6
BITMAP
00001C
00003E
00003E
00001E
00000E
000006
003004
007004
006004
00E008
00C008
018010
010020
000040
000180
000600
0FF800
3DE000
78F000
70F000
F07800
F07800
F07800
F07800
F07800
F07000
70F000
39E000
0F8000
ENDCHAR
STARTCHAR ocircumflex
ENCODING 244
SWIDTH 400 0
DWIDTH 14 0
BBX 23 29 1 6
BITMAP
00001C
00003E
00003E
00001E
00000E
000006
020004
030004
078004
0DC008
18E008
303810
600C20
800040
000180
000600
0FF800
3DE000
78F000
70F000
F07800
F07800
F07800
F07800
F07800
F07000
70F000
39E000
0F8000
ENDCHAR
STARTCHAR otilde
ENCODING 245
SWIDTH 400 0
DWIDTH 14 0
BBX 23 29 1 6
BITMAP
00001C
00003E
00003E
00001E
00000E
000006
000004
000004
0E0004
1F8008
13C408
21FC10
20FC20
007840
000180
000600
0FF800
3DE000
78F000
70F000
F07800
F07800
F07800
F07800
F07800
F07000
70F000
39E000
0F8000
ENDCHAR
STARTCHAR odieresis
ENCODING 246
SWIDTH 400 0
DWIDTH 14 0
BBX 23 29 1 6
BITMAP
00001C
00003E
00003E
00001E
00000E
000006
000004
000004
000004
0E6008
0F7008
0E6010
0E6020
000040
000180
000600
0FF800
3DE000
78F000
70F000
F07800
F07800
F07800
F07800
F07800
F07000
70F000
39E000
0F8000
ENDCHAR
STARTCHAR divide
ENCODING 247
SWIDTH 592 0
DWIDTH 21 0
BBX 18 14 2 4
BITMAP
018000
03C000
03C000
018000
000000
000000
000000
FFFFC0
000000
000000
018000
03C000
03C000
018000
ENDCHAR
STARTCHAR oslash
ENCODING 248
SWIDTH 396 0
DWIDTH 14 0
BBX 14 21 0 1
BITMAP
0080
0080
0080
0FC0
39F0
7178
7138
E338
E23C
E23C
E63C
E438
6478
7C70
38E0
0F80
1800
1800
1000
1000
3000
ENDCHAR
STARTCHAR ugrave
ENCODING 249
SWIDTH 744 0
DWIDTH 27 0
BBX 27 27 0 1
BITMAP
00C00000
00E00000
00F00000
00700000
00380000
00180000
00040000
00000000
02001800
03007800
0707F800
1F007800
FF003800
07003800
07003800
07803800
07803800
07803800
07803800
03805C00
03C05C00
03C05C00
03E09FE0
01F19E00
01FF0000
00FF0000
007C0000
ENDCHAR
STARTCHAR uacute
ENCODING 250
SWIDTH 744 0
DWIDTH 27 0
BBX 27 27 0 1
BITMAP
00010000
00030000
00070000
00060000
000C0000
000C0000
00180000
00000000
02001800
03007800
0707F800
1F007800
FF003800
07003800
07003800
07803800
07803800
07803800
07803800
03805C00
03C05C00
03C05C00
03E09FE0
01F19E00
01FF0000
00FF0000
007C0000
ENDCHAR
STARTCHAR ucircumflex
ENCODING 251
SWIDTH 744 0
DWIDTH 27 0
BBX 27 27 0 1
BITMAP
00100000
00380000
007C0000
004E0000
00870000
01038000
0200C000
04000000
02001800
03007800
0707F800
1F007800
FF003800
07003800
07003800
07803800
07803800
07803800
07803800
03805C00
03C05C00
03C05C00
03E09FE0
01F19E00
01FF0000
00FF0000
007C0000
ENDCHAR
STARTCHAR udieresis
ENCODING 252
SWIDTH 744 0
DWIDTH 27 0
BBX 27 25 0 1
BITMAP
00398000
007B8000
007B8000
00318000
00000000
00000000
02001800
03007800
0707F800
1F007800
FF003800
07003800
07003800
07803800
07803800
07803800
07803800
03805C00
03C05C00
03C05C00
03E09FE0
01F19E00
01FF0000
00FF0000
007C0000
ENDCHAR
STARTCHAR yacute
ENCODING 253
SWIDTH 659 0
DWIDTH 24 0
BBX 23 41 0 -16
BITMAP
0000C0
0000C0
0001C0
000380
000300
004200
018400
070002
3E07FC
FE01F8
1E00F8
1E0078
1E0078
1E0078
1E0078
0E0078
0F0078
0F0078
0F00F8
0780F0
0780F0
07C170
03E370
01FE70
00F870
000060
000060
000060
0000E0
0000C0
0000C0
03C0C0
07E0C0
0FE180
09E180
09C100
080300
080600
080C00
061800
03E000
ENDCHAR
STARTCHAR thorn
ENCODING 254
SWIDTH 514 0
DWIDTH 19 0
BBX 20 53 -2 -22
BITMAP
008000
030000
1E0000
FE0000
0E0000
0E0000
0E0000
0E0000
0E0000
0E0000
0E0000
0E0000
0E0000
0E7C00
06FF00
078F80
0707C0
0703E0
0703E0
0701E0
0701F0
0701F0
0701F0
0701F0
0701F0
0701F0
0701F0
0781F0
0783E0
07C7E0
07FFC0
079F00
078000
078000
078000
078000
078000
078000
078000
078000
078000
078000
078000
078000
078000
07C000
07C000
07C000
07C000
07C000
0FC000
3FF000
001C00
ENDCHAR
STARTCHAR ydieresis
ENCODING 255
SWIDTH 659 0
DWIDTH 24 0
BBX 23 42 0 -16
BITMAP
001CC0
001CC0
003DC0
001CC0
000000
000000
004000
018000
070002
3E07FC
FE01F8
1E00F8
1E0078
1E0078
1E0078
1E0078
0E0078
0F0078
0F0078
0F00F8
0780F0
0780F0
07C170
03E370
01FE70
00F870
000060
000060
000060
0000E0
0000C0
0000C0
03C0C0
07E0C0
0FE180
09E180
09C100
080300
080600
080C00
061800
03E000
ENDCHAR
STARTCHAR dotlessi
ENCODING 305
SWIDTH 301 0
DWIDTH 11 0
BBX 10 19 0 3
BITMAP
0100
0300
1F00
FE00
1E00
1E00
1E00
1E00
1E00
1E00
1E00
1E00
1E00
1E00
1C00
1C00
1E00
3E00
FFC0
ENDCHAR
STARTCHAR OE
ENCODING 338
SWIDTH 1132 0
DWIDTH 41 0
BBX 41 36 0 -6
BITMAP
000000001000
000000007000
00000001F000
0000001F3000
007F0FF01000
01FFE3E01000
07C0F3E00800
0F003DE00800
1E001FE00000
3C000FE00000
7C0007E00000
780007E00000
780003E02000
F80003E02000
F80003E04000
F80001E04000
F80001E1C000
F80001FFC000
F80001F04000
FC0001E04000
FC0001F02000
7E0001F02000
7E0001F00000
3F0003F00000
3F0003F00080
1F8007F00100
0FE00DF00100
07F839F00100
01FFE1F00100
007F81F00300
000001F00300
000001F00700
000001F83F00
000001FFFF00
000007C00000
00003C000000
ENDCHAR
STARTCHAR oe
ENCODING 339
SWIDTH 798 0
DWIDTH 29 0
BBX 28 17 1 3
BITMAP
0FC01F00
18F07380
3078E1C0
703DC1C0
701DC1C0
F01F81C0
F01F8180
F00F8700
F00FFE20
F00F8020
F80FC010
780FC010
780FE030
3C09E020
1E11F860
07E07FC0
00001F00
ENDCHAR
STARTCHAR circumflex
ENCODING 710
SWIDTH 483 0
DWIDTH 17 0
BBX 14 8 2 23
BITMAP
0200
0700
0780
0DC0
18E0
3070
401C
8000
ENDCHAR
STARTCHAR caron
ENCODING 711
SWIDTH 428 0
DWIDTH 15 0
BBX 12 10 2 25
BITMAP
0010
0020
C040
6080
3100
3F00
1E00
0E00
0C00
0400
ENDCHAR
STARTCHAR ring
ENCODING 730
SWIDTH 330 0
DWIDTH 12 0
BBX 8 9 2 30
BITMAP
3C
62
C3
C1
C1
C3
E3
7E
3C
ENDCHAR
STARTCHAR tilde
ENCODING 732
SWIDTH 433 0
DWIDTH 16 0
BBX 12 6 2 26
BITMAP
3800
7C00
9F10
8FF0
87E0
01C0
ENDCHAR
STARTCHAR mu.dup1
ENCODING 956
SWIDTH 634 0
DWIDTH 23 0
BBX 21 29 2 -11
BITMAP
E00400
E01E00
E01E00
E01E00
E01E00
E01E00
E00E00
E00E00
E00E20
E00E10
F00E18
F00F08
F81F08
E81708
E42798
E3C3F0
F001E0
F00000
F00000
F00000
F00000
F00000
F00000
F00000
F00000
F80000
780000
780000
780000
ENDCHAR
STARTCHAR endash
ENCODING 8211
SWIDTH 436 0
DWIDTH 16 0
BBX 12 1 2 7
BITMAP
FFF0
ENDCHAR
STARTCHAR emdash
ENCODING 8212
SWIDTH 651 0
DWIDTH 23 0
BBX 20 3 2 8
BITMAP
000FF0
0FFFE0
FFC000
ENDCHAR
STARTCHAR quoteleft
ENCODING 8216
SWIDTH 287 0
DWIDTH 10 0
BBX 7 12 2 18
BITMAP
06
18
30
70
70
F8
F8
FC
FC
FC
7C
78
ENDCHAR
STARTCHAR quoteright
ENCODING 8217
SWIDTH 291 0
DWIDTH 11 0
BBX 7 12 2 17
BITMAP
78
FC
FE
FE
7E
3E
1E
0E
0C
0C
18
30
ENDCHAR
STARTCHAR quotesinglbase
ENCODING 8218
SWIDTH 272 0
DWIDTH 10 0
BBX 6 12 2 -6
BITMAP
78
FC
FC
FC
7C
3C
18
18
18
10
20
20
ENDCHAR
STARTCHAR quotedblleft
ENCODING 8220
SWIDTH 445 0
DWIDTH 16 0
BBX 12 13 2 16
BITMAP
0200
0C20
1840
30C0
30C0
71C0
F1E0
F9F0
F9F0
FDF0
FCE0
FC00
7800
ENDCHAR
STARTCHAR quotedblright
ENCODING 8221
SWIDTH 444 0
DWIDTH 16 0
BBX 13 13 1 17
BITMAP
7000
F8F0
FDF8
FDF8
7DF8
3CF8
1CF8
1870
1870
1060
30C0
6180
0600
ENDCHAR
STARTCHAR quotedblbase
ENCODING 8222
SWIDTH 482 0
DWIDTH 17 0
BBX 14 13 2 -9
BITMAP
7800
FC78
FEFC
FEFC
FEFC
7E7C
1E7C
0E38
0C38
0C30
1860
1040
0080
ENDCHAR
STARTCHAR bullet
ENCODING 8226
SWIDTH 351 0
DWIDTH 13 0
BBX 9 9 2 10
BITMAP
3E00
7F00
FF80
FF80
FF80
FF80
FF80
7F00
3E00
ENDCHAR
STARTCHAR guilsinglleft
ENCODING 8249
SWIDTH 465 0
DWIDTH 17 0
BBX 13 23 2 -3
BITMAP
0040
0060
0040
00C0
0080
0180
0300
0700
0E00
1C00
7C00
FC00
FE00
3E00
1F00
0780
0380
01C0
00E0
0060
0030
0018
0008
ENDCHAR
STARTCHAR guilsinglright
ENCODING 8250
SWIDTH 449 0
DWIDTH 16 0
BBX 12 23 2 -4
BITMAP
4000
6000
3000
3000
1800
1C00
0F00
0780
07E0
03F0
07E0
0780
0F00
1E00
1C00
3800
3000
7000
6000
C000
C000
8000
8000
ENDCHAR
STARTCHAR fraction
ENCODING 8260
SWIDTH 406 0
DWIDTH 15 0
BBX 24 33 -5 0
BITMAP
000003
000002
000006
00000C
000008
000018
000030
000060
000060
0000C0
000180
000300
000300
000600
000C00
000C00
001800
003000
006000
006000
00C000
018000
010000
030000
060000
0C0000
080000
180000
300000
200000
600000
C00000
800000
ENDCHAR
STARTCHAR foursuperior
ENCODING 8308
SWIDTH 473 0
DWIDTH 17 0
BBX 16 21 1 13
BITMAP
0100
0100
0180
0380
0380
0780
0780
0B80
1380
1388
2188
2188
41D8
5FF8
FFFC
01C0
01E0
01E0
01F0
07FF
0C00
ENDCHAR
STARTCHAR Euro
ENCODING 8364
SWIDTH 799 0
DWIDTH 29 0
BBX 31 31 -1 -2
BITMAP
00000002
00000002
0001FE04
0007838C
001E00F8
003C0078
00780078
00F80030
00F00030
01F00030
01E00010
03E06010
03E18010
03EE0000
07F00000
07C1C000
3FCE0000
77F80000
07E00000
0FE00000
7FE00040
F7E00040
03E00040
03E00080
03F00080
01F80180
00FC0300
00FE0700
007FFE00
001FFC00
0007F000
ENDCHAR
STARTCHAR minus
ENCODING 8722
SWIDTH 436 0
DWIDTH 16 0
BBX 12 1 2 7
BITMAP
FFF0
ENDCHAR
STARTCHAR f_f
ENCODING 64256
SWIDTH 467 0
DWIDTH 17 0
BBX 19 53 1 -13
BITMAP
00F000
03F800
027C00
047C00
087800
087800
080F80
1811C0
1821E0
1861E0
10C3E0
10C3E0
30C7E0
30C7E0
3187E0
3183C0
318000
318000
318000
318000
318000
37FE00
79C000
B9C000
39C000
39C000
38C000
38C000
38E000
38E000
38E000
38E000
3CE000
3C7000
1C7000
1C7000
1C7800
1C7800
1E3C00
1E3C00
1E3F80
1E3C00
1E6000
1EC000
1E0000
0F0000
0F0000
0F0000
0F0000
0F8000
1FC000
3FE000
FFF800
ENDCHAR
STARTCHAR .notdef
ENCODING -1
SWIDTH 270 0
DWIDTH 10 0
BBX 7 22 1 0
BITMAP
FE
82
82
82
82
82
82
82
82
82
82
82
82
82
82
82
82
82
82
82
82
FE
ENDCHAR
STARTCHAR .null
ENCODING -1
SWIDTH 0 0
DWIDTH 0 0
BBX 1 1 0 0
BITMAP
00
ENDCHAR
STARTCHAR nonmarkingreturn
ENCODING -1
SWIDTH 270 0
DWIDTH 10 0
BBX 1 1 0 0
BITMAP
00
ENDCHAR
STARTCHAR dieresis.case
ENCODING -1
SWIDTH 393 0
DWIDTH 14 0
BBX 11 5 2 27
BITMAP
7000
F8C0
F9E0
F9E0
70C0
ENDCHAR
STARTCHAR o.cmp
ENCODING -1
SWIDTH 400 0
DWIDTH 14 0
BBX 23 29 1 6
BITMAP
00001C
00003E
00003E
00001E
00000E
000006
000004
000004
000004
000008
000008
000010
000020
000040
000180
000600
0FF800
3DE000
78F000
70F000
F07800
F07800
F07800
F07800
F07800
F07000
70F000
39E000
0F8000
ENDCHAR
STARTCHAR n_n
ENCODING -1
SWIDTH 1024 0
DWIDTH 37 0
BBX 37 23 0 0
BITMAP
0200000000
0600000000
0E00000000
3E0F800000
DE1FC04000
0E3FE1C000
0E63EFC000
0F41F3C780
0F80F1DFC0
0780F1D1E0
0780F1E0E0
0780F1E0F0
0780E1C0F0
0780E3C0F0
0300E3C0F0
0300E3C0F0
0380E3C0F0
0380E3C1E0
0381E3C1E0
038FE3F1E0
0381EC0FE0
1FE0700038
0000180000
ENDCHAR
STARTCHAR a_a
ENCODING -1
SWIDTH 911 0
DWIDTH 33 0
BBX 34 25 1 -2
BITMAP
00001F0000
000061C000
0000E0E000
0000E06000
0000F07000
1F00F07000
3180F07000
60C0E07000
60C0007800
F0C0007800
F0E07E7800
F061C1F800
7063807800
00E3807800
0FE7B07800
3C67387800
7867987800
706788F800
F0E7C9F800
F0F3FF7800
F0F1FE7840
F938F87840
7F3C403CC0
3E0F803F80
0000000F00
ENDCHAR
STARTCHAR t_h
ENCODING -1
SWIDTH 854 0
DWIDTH 31 0
BBX 32 47 0 -8
BITMAP
00004000
0000C000
0001C000
000FC000
007FC000
0003C000
0001C000
0001C000
0001C000
0001C000
0021C000
0021C000
0061C000
00C1C000
01C1C000
07E1C000
FFFFF000
03C18000
03838000
03838000
078387C0
078398F0
0783A038
0783E03C
0783C03C
0783C01C
0783801E
0783871E
07838F1E
07838F1E
0383871E
0383871E
03C7831E
01C7821C
00E7863C
007F983C
000FE03C
0007803C
0007803C
000FC038
003FE078
00603878
000000F8
000001F8
00000FFC
0000001C
00000003
ENDCHAR
STARTCHAR s_s
ENCODING -1
SWIDTH 654 0
DWIDTH 24 0
BBX 24 32 -1 -5
BITMAP
000102
000101
00FE02
01CC7E
0385C6
038B82
038B82
038382
03C382
01C380
01E3C0
00F1E0
0079E0
007CF0
003EF8
001F78
000F3C
0007BE
10079E
10779E
10F39F
30F38F
38F38F
38C70F
4C860F
868C0F
01F81F
00801F
00403E
00707C
003FF8
000FE0
ENDCHAR
STARTCHAR t_t
ENCODING -1
SWIDTH 569 0
DWIDTH 21 0
BBX 20 32 0 -3
BITMAP
003800
003800
013800
013800
013800
033840
077980
0F7E00
1FF800
FFF800
1E7000
1E7000
1E7000
1E7000
1E7000
1E7000
1E7000
1E7000
1E70E0
1E31F0
1E38F0
1E3870
1E1C10
1E0E20
0E07C0
0E0000
0E0180
0703C0
0303C0
0387C0
00C780
003E00
ENDCHAR
STARTCHAR e_e
ENCODING -1
SWIDTH 782 0
DWIDTH 28 0
BBX 28 20 0 0
BITMAP
07C07C00
1C61C700
38738300
70338180
70370180
F0770180
F06F0180
F06F0180
F0CF0380
F38F0300
FC0F0300
F00F0640
780F0620
7C078C30
3C079830
1E07F030
0783E020
01FFF060
00007FC0
00001F80
ENDCHAR
STARTCHAR o_o
ENCODING -1
SWIDTH 751 0
DWIDTH 27 0
BBX 36 31 1 2
BITMAP
00000000E0
00000001F0
00000001F0
00000000F0
0000000070
0000000030
0000000020
0000000020
0000000020
0000000040
0000000040
0000000080
0000000100
0000000200
07E0000C00
0E10003000
3C08DFC000
380F8E0000
7007070000
700E078000
F00E038000
F01F03C000
F01F03C000
F01F03C000
F00F038000
F00E038000
700E070000
701F0E0000
381DF80000
1C38000000
07E0000000
ENDCHAR
STARTCHAR l_l
ENCODING -1
SWIDTH 573 0
DWIDTH 21 0
BBX 23 36 -2 -5
BITMAP
018020
0180E0
0387E0
0F9FE0
1F83E0
6783E0
0783E0
0783E0
0783E0
0781E0
0781E0
0781E0
0781E0
0781E0
0781E0
0781E0
0781E0
0781E0
0781E0
0781E0
0781E0
0781E0
0781E0
0781E0
0781E0
0781E0
0781F0
0781F0
0781F0
0783F8
078FFE
0FC000
FFC000
0FC000
00F000
001800
ENDCHAR
STARTCHAR z_z
ENCODING -1
SWIDTH 875 0
DWIDTH 32 0
BBX 33 24 -1 -2
BITMAP
00300E0000
003FFC0000
00203C0000
00403C0000
1C03380000
13FE380000
107C700000
10FC700000
10F8F00000
01F0E00000
01F1E00000
03E1C00000
03C3C00000
07C3C08000
0787808700
0F07818F00
0F0F818F80
1E0FFF8F80
3C0E038F80
3C00000700
7BFC000700
7FFFC00600
E007F80C00
00001FF000
ENDCHAR
STARTCHAR j_j
ENCODING -1
SWIDTH 577 0
DWIDTH 21 0
BBX 24 49 -4 -23
BITMAP
0001C0
0003E0
0003E0
0033E0
0079C0
007800
003070
0007F0
0003F8
000DF8
0FFEF8
00FE7C
007E7C
003E3C
001E3C
001E1E
001F1E
000F1E
000F1E
000F0E
000F0E
000F0F
00070F
00070F
00070F
000707
000707
000707
000707
000707
000707
3C0707
7E0607
FE0607
FE0607
FE0607
F80E07
C00C06
C00C06
C01806
C01806
403006
30E80C
1F9E0C
003E08
003F18
001F10
001FE0
000F80
ENDCHAR
STARTCHAR f_b
ENCODING -1
SWIDTH 731 0
DWIDTH 26 0
BBX 28 47 -1 -6
BITMAP
001F0000
00318000
0060C000
00C0C000
00C0E000
0181E000
0187E000
018FE000
038FC000
039FC000
038FA000
03826000
0381E000
078FE000
0787E000
0785E000
0FFBE000
FF80E000
0780E000
0780E000
0780E000
0780E000
0780E000
0780E000
0780E000
0780E000
0780E000
0780E000
0780EF80
0780F1E0
0780E0E0
0780E0F0
0780E0F0
0780E0F0
0780E0F0
0780E0F0
0780E0F0
0780E1E0
0781F3C0
07C3FF80
07C60000
07C80000
07C00000
07FC0000
0FFC0000
1C000000
60000000
ENDCHAR
STARTCHAR f_k
ENCODING -1
SWIDTH 708 0
DWIDTH 26 0
BBX 24 41 1 -4
BITMAP
004000
004000
00C000
03C000
3FFE00
43C700
03C780
07C780
06CF80
0CCF80
0CCF80
1CCF00
1CC000
18C000
18C000
18E000
38E000
78E400
B8E300
38E0FC
38E0C0
38E100
38E200
38E200
38E600
38EE00
38FE00
38EF06
38EF02
38E781
38E781
38E3C1
38F3E3
38F1FF
38F0FE
38F03C
78F000
FCF000
07F000
01FC00
1FFF80
ENDCHAR
STARTCHAR f_h
ENCODING -1
SWIDTH 873 0
DWIDTH 31 0
BBX 33 46 -1 -5
BITMAP
001F000000
0021C00000
0040C00000
00C0E00000
0080E00000
0181E00000
0187E00000
018FE00000
031FC00000
031FD00000
030FB00000
0306700000
0301F00000
070FF00000
0780F00000
07DC700000
1FE0700000
FF80600000
0780600000
0780600000
0780600000
0780600000
0780600000
0780600000
0780600000
0780E00000
0780E3E000
0780E7F000
0780EC7800
0780F87C00
0780F03C00
0780F03C00
0780F03C00
0780E03C00
0780E03C00
0780E03C00
0780E03C00
0781E03C00
0781E03C00
0781E03C00
07C3E07F80
07DFF1C000
07F8180000
0FFC000000
1C00000000
6000000000
ENDCHAR
ENDFONT
